<svg xmlns="http://www.w3.org/2000/svg" viewBox="0 0 32 32" width="32" height="32"><style>tspan { white-space:pre }.shp0 { display: none;fill: #000000 } .shp1 { fill: none;stroke: #92bae1;stroke-linecap:round;stroke-linejoin:round;stroke-width: 2 } .shp2 { fill: none;stroke: #0460ba;stroke-linecap:round;stroke-linejoin:round;stroke-width: 2 } </style><g id="apps"><path id="Path" class="shp0" d="M0 0L31.2 0L31.2 31.2L0 31.2L0 0Z" /><path id="Rectangle" class="shp1" d="M6.5 5.2L11.7 5.2C12.42 5.2 13 5.78 13 6.5L13 11.7C13 12.42 12.42 13 11.7 13L6.5 13C5.78 13 5.2 12.42 5.2 11.7L5.2 6.5C5.2 5.78 5.78 5.2 6.5 5.2Z" /><path id="Rectangle" class="shp2" d="M6.5 18.2L11.7 18.2C12.42 18.2 13 18.78 13 19.5L13 24.7C13 25.42 12.42 26 11.7 26L6.5 26C5.78 26 5.2 25.42 5.2 24.7L5.2 19.5C5.2 18.78 5.78 18.2 6.5 18.2Z" /><path id="Rectangle" class="shp1" d="M19.5 18.2L24.7 18.2C25.42 18.2 26 18.78 26 19.5L26 24.7C26 25.42 25.42 26 24.7 26L19.5 26C18.78 26 18.2 25.42 18.2 24.7L18.2 19.5C18.2 18.78 18.78 18.2 19.5 18.2Z" /><path id="Path" class="shp2" d="M18.2 9.1L26 9.1" /><path id="Path" class="shp2" d="M22.1 5.2L22.1 13" /></g></svg>