<svg xmlns="http://www.w3.org/2000/svg" viewBox="0 0 24 24" width="24" height="24">
	<style>
		tspan { white-space:pre }
		.shp0 { fill: #0460ba } 
	</style>
	<g id="BinaryFortressLight">
		<path id="Rectangle" class="shp0" d="M0 0L3.33 0L3.33 3.33L0 3.33L0 0Z" />
		<path id="Rectangle" class="shp0" d="M0 5L3.33 5L3.33 8.34L0 8.34L0 5Z" />
		<path id="Rectangle" class="shp0" d="M5 5L8.34 5L8.34 8.34L5 8.34L5 5Z" />
		<path id="Rectangle" class="shp0" d="M10 5L13.34 5L13.34 8.34L10 8.34L10 5Z" />
		<path id="Rectangle" class="shp0" d="M15.01 5L18.34 5L18.34 8.34L15.01 8.34L15.01 5Z" />
		<path id="Rectangle" class="shp0" d="M20.01 5L23.34 5L23.34 8.34L20.01 8.34L20.01 5Z" />
		<path id="Rectangle" class="shp0" d="M20.01 0L23.34 0L23.34 3.33L20.01 3.33L20.01 0Z" />
		<path id="Rectangle" class="shp0" d="M5 10L8.34 10L8.34 13.34L5 13.34L5 10Z" />
		<path id="Rectangle" class="shp0" d="M5 15.01L8.34 15.01L8.34 18.34L5 18.34L5 15.01Z" />
		<path id="Rectangle" class="shp0" d="M5 20.01L8.34 20.01L8.34 23.34L5 23.34L5 20.01Z" />
		<path id="Rectangle" class="shp0" d="M10 10L13.34 10L13.34 13.34L10 13.34L10 10Z" />
		<path id="Rectangle" class="shp0" d="M10 15.01L13.34 15.01L13.34 18.34L10 18.34L10 15.01Z" />
		<path id="Rectangle" class="shp0" d="M15.01 10L18.34 10L18.34 13.34L15.01 13.34L15.01 10Z" />
		<path id="Rectangle" class="shp0" d="M15.01 15.01L18.34 15.01L18.34 18.34L15.01 18.34L15.01 15.01Z" />
		<path id="Rectangle" class="shp0" d="M15.01 20.01L18.34 20.01L18.34 23.34L15.01 23.34L15.01 20.01Z" />
		<path id="Rectangle" class="shp0" d="M10 20.01L13.34 20.01L13.34 23.34L10 23.34L10 20.01Z" />
		<path id="Rectangle" class="shp0" d="M10 0L13.34 0L13.34 3.33L10 3.33L10 0Z" />
	</g>
</svg>