<svg xmlns="http://www.w3.org/2000/svg" viewBox="0 0 32 32" width="32" height="32"><style>tspan { white-space:pre }.shp0 { display: none;fill: #000000 } .shp1 { fill: none;stroke: #0460ba;stroke-linecap:round;stroke-linejoin:round;stroke-width: 1.95 } .shp2 { fill: none;stroke: #92bae1;stroke-linecap:round;stroke-linejoin:round;stroke-width: 1.95 } </style><g id="calendar-chedule-clock"><path id="Rectangle" class="shp0" d="M0 0L31.2 0L31.2 31.2L0 31.2L0 0Z" /><path id="Path" class="shp1" d="M27.3 10.4L3.9 10.4" /><path id="Path" class="shp1" d="M22.75 16.9C25.98 16.9 28.6 19.52 28.6 22.75C28.6 25.98 25.98 28.6 22.75 28.6C19.52 28.6 16.9 25.98 16.9 22.75C16.9 19.52 19.52 16.9 22.75 16.9" /><path id="Path" class="shp1" d="M19.07 27.3L7.8 27.3C5.65 27.3 3.9 25.55 3.9 23.4L3.9 7.8C3.9 5.65 5.65 3.9 7.8 3.9L23.4 3.9C25.55 3.9 27.3 5.65 27.3 7.8L27.3 19.07" /><path id="Path" class="shp1" d="M23.04 19.88L23.04 22.99" /><path id="Path" class="shp1" d="M20.51 22.99L23.04 22.99" /><path id="Path" class="shp2" d="M8.84 14.95C8.84 14.99 8.81 15.01 8.77 15.01C8.74 15.01 8.71 14.99 8.71 14.95C8.71 14.91 8.74 14.88 8.77 14.88" /><path id="Path" class="shp2" d="M8.77 14.88C8.81 14.88 8.84 14.91 8.84 14.95" /><path id="Path" class="shp2" d="M13.39 14.95C13.39 14.99 13.36 15.01 13.32 15.01C13.29 15.01 13.26 14.99 13.26 14.95C13.26 14.91 13.29 14.88 13.32 14.88" /><path id="Path" class="shp2" d="M13.32 14.88C13.36 14.88 13.39 14.91 13.39 14.95" /><path id="Path" class="shp2" d="M8.84 18.85C8.84 18.89 8.81 18.91 8.77 18.91C8.74 18.91 8.71 18.89 8.71 18.85C8.71 18.81 8.74 18.78 8.77 18.78" /><path id="Path" class="shp2" d="M8.77 18.78C8.81 18.78 8.84 18.81 8.84 18.85" /><path id="Path" class="shp2" d="M13.39 18.85C13.39 18.89 13.36 18.91 13.32 18.91C13.29 18.91 13.26 18.89 13.26 18.85C13.26 18.81 13.29 18.78 13.32 18.78" /><path id="Path" class="shp2" d="M13.32 18.78C13.36 18.78 13.39 18.81 13.39 18.85" /><path id="Path" class="shp2" d="M17.94 14.95C17.94 14.99 17.91 15.01 17.87 15.01C17.84 15.01 17.81 14.99 17.81 14.95C17.81 14.91 17.84 14.88 17.87 14.88" /><path id="Path" class="shp2" d="M17.87 14.88C17.91 14.88 17.94 14.91 17.94 14.95" /><path id="Path" class="shp2" d="M8.84 22.75C8.84 22.79 8.81 22.81 8.77 22.81C8.74 22.81 8.71 22.79 8.71 22.75C8.71 22.71 8.74 22.68 8.77 22.68" /><path id="Path" class="shp2" d="M8.77 22.68C8.81 22.68 8.84 22.71 8.84 22.75" /><path id="Path" class="shp2" d="M13.39 22.75C13.39 22.79 13.36 22.81 13.32 22.81C13.29 22.81 13.26 22.79 13.26 22.75C13.26 22.71 13.29 22.68 13.32 22.68" /><path id="Path" class="shp2" d="M13.32 22.68C13.36 22.68 13.39 22.71 13.39 22.75" /></g></svg>