<svg xmlns="http://www.w3.org/2000/svg" viewBox="0 0 20 20" width="20" height="20">
	<style>
		tspan { white-space:pre }
		.shp0 { opacity: 0;fill: #06b247 } 
		.shp1 { fill: #06b247 } 
	</style>
	<g id="checkmark-circle-2">
		<path id="Rectangle" class="shp0" d="M-2 -2L22 -2L22 22L-2 22L-2 -2Z" />
		<path id="Shape" fill-rule="evenodd" class="shp1" d="M17.07 2.93C18.95 4.8 20 7.35 20 10C20 15.52 15.52 20 10 20C4.48 20 0 15.52 0 10C0 4.48 4.48 0 10 0C12.65 0 15.2 1.05 17.07 2.93ZM14.3 7.58C14.52 7.29 14.57 6.91 14.43 6.58C14.29 6.25 13.98 6.02 13.63 5.97C13.27 5.93 12.92 6.07 12.7 6.36L8.92 11.36L7.29 9.28C7.07 9 6.72 8.85 6.36 8.9C6.01 8.95 5.71 9.19 5.57 9.52C5.44 9.85 5.49 10.23 5.71 10.51L8.15 13.62C8.34 13.86 8.63 14 8.94 14C9.25 14 9.54 13.86 9.73 13.61L14.3 7.61L14.3 7.58Z" />
	</g>
</svg>