<svg xmlns="http://www.w3.org/2000/svg" viewBox="0 0 27 24" width="27" height="24">
	<style>
		tspan { white-space:pre }
		.shp0 { fill: #181818 } 
		.shp1 { fill: #c1951a } 
		.shp2 { fill: #f7c31f } 
		.shp3 { fill: none;stroke: #035e7f } 
		.shp4 { fill: #06b247 } 
		.shp5 { fill: #057c30 } 
	</style>
	<g id="CheckCentral">
		<path id="Path" class="shp0" d="M22.69 19.18L24.86 21.5C23.26 22.96 21.08 23.83 18.69 23.83C13.78 23.83 9.84 20.08 9.83 15.16C9.82 9.99 13.85 6.36 18.76 6.36C21.17 6.36 23.34 7.32 24.94 8.86L22.56 11.17C21.55 10.22 20.2 9.64 18.71 9.64C15.62 9.64 13.11 12.15 13.11 15.24C13.11 18.34 15.61 20.84 18.71 20.84C20.27 20.84 21.67 20.2 22.69 19.18Z" />
		<path id="Path" class="shp1" d="M23.84 12.99C23 12.04 20.99 10.38 17.8 11.3C14.29 12.32 13.55 16.04 14.19 18.54C13.51 17.62 13.11 16.47 13.11 15.24C13.11 12.15 15.61 9.63 18.71 9.63C20.2 9.63 21.55 10.21 22.56 11.16C23.1 11.68 23.54 12.29 23.84 12.99Z" />
		<path id="Path" class="shp2" d="M24.31 15.24C24.31 16.77 23.69 18.17 22.69 19.18C21.67 20.2 20.26 20.84 18.71 20.84C16.85 20.84 15.21 19.93 14.19 18.55C13.54 16.04 14.29 12.32 17.8 11.3C20.99 10.38 23 12.04 23.84 12.99C24.14 13.67 24.31 14.43 24.31 15.24Z" />
		<path id="Path" class="shp3" d="M25.04 8.82L24.94 8.91" />
		<path id="Path" class="shp0" d="M16.02 2.55L13.93 4.61C12.94 3.77 11.65 3.25 10.24 3.25C7.13 3.25 4.6 5.75 4.6 8.84C4.6 10.13 5.04 11.31 5.77 12.25L5.77 12.25C6.58 13.28 7.73 14.03 9.06 14.31C9.02 15.81 9.32 17 9.43 17.41C4.65 17.14 1 13.72 1 8.87C1 3.8 4.62 0.02 9.9 0C12.32 -0.01 14.64 0.95 16.02 2.55Z" />
		<path id="Path" class="shp4" d="M15.19 6.37C12.25 7.03 10.62 9.46 10.37 9.84C9.41 11.35 9.1 12.96 9.06 14.31C7.73 14.03 6.57 13.29 5.77 12.26L5.77 12.26C5.12 10.41 5.26 6.62 8.78 5.06C12.1 3.58 14.68 5.88 15.19 6.37Z" />
		<path id="Path" class="shp5" d="M15.28 6.35C15.25 6.36 15.22 6.36 15.18 6.37C14.68 5.88 12.1 3.58 8.77 5.06C5.26 6.62 5.12 10.41 5.77 12.26C5.04 11.31 4.6 10.13 4.6 8.84C4.6 5.76 7.13 3.25 10.24 3.25C11.65 3.25 12.94 3.77 13.93 4.62C14.49 5.09 14.95 5.68 15.28 6.35Z" />
	</g>
</svg>