<svg xmlns="http://www.w3.org/2000/svg" viewBox="0 0 26 27" width="26" height="27">
	<style>
		tspan { white-space:pre }
		.shp0 { fill: #0460ba } 
		.shp1 { fill: #ffffff } 
	</style>
	<g id="ClipboardFusion">
		<g id="_0460baff">
			<path id="Shape" fill-rule="evenodd" class="shp0" d="M1.78 0L24.21 0C24.64 0.08 25 0.46 25 0.91C25 9.2 25 17.49 25 25.77C25 26.22 24.64 26.6 24.21 26.68L1.79 26.68C1.36 26.6 1 26.22 1 25.77C1 17.49 1 9.2 1 0.91C1 0.47 1.36 0.08 1.79 0M12.22 1.51C12.14 1.87 12.36 2.27 12.71 2.4C13.01 2.51 13.35 2.43 13.57 2.19C13.84 1.91 13.84 1.43 13.57 1.14C13.39 0.95 13.13 0.86 12.86 0.9C12.54 0.95 12.29 1.19 12.22 1.51ZM2.43 2.4C2.43 9.64 2.43 16.89 2.43 24.13C2.42 24.64 2.89 25.09 3.4 25.07L22.52 25.07C23.04 25.11 23.53 24.65 23.51 24.13C23.51 16.89 23.51 9.64 23.51 2.4C23.53 1.9 23.1 1.46 22.6 1.46C21.43 1.46 20.25 1.46 19.08 1.46C19.08 1.82 19.09 2.18 19.08 2.53C19.05 3 18.62 3.4 18.15 3.39C14.71 3.39 11.27 3.39 7.83 3.39C7.36 3.4 6.92 3 6.89 2.53C6.88 2.17 6.89 1.82 6.89 1.46C5.67 1.46 4.44 1.44 3.22 1.47C2.78 1.53 2.42 1.95 2.43 2.4Z" />
			<path id="Path" class="shp0" d="M12.94 4.82L12.98 4.82C12.98 5.81 12.97 6.8 12.99 7.79C13.87 7.83 14.75 7.95 15.58 8.22C17.07 8.68 18.39 9.68 19.2 11.01C19.85 12.08 20.13 13.33 20.13 14.57C20.13 15.08 20.13 15.59 20.13 16.11C20 16.12 19.87 16.12 19.74 16.1C19.29 15.41 18.89 14.68 18.39 14.01C17.83 13.27 17.17 12.58 16.33 12.16C15.92 11.97 15.5 11.8 15.07 11.67C14.4 11.47 13.69 11.38 12.99 11.36C12.97 12.28 12.99 13.2 12.98 14.12C12.98 14.17 12.97 14.24 13.02 14.27C15.38 15.84 17.74 17.41 20.09 18.98C20.09 18.99 20.09 19.01 20.09 19.01C17.72 20.59 15.35 22.17 12.99 23.75L12.96 23.74C12.96 22.75 12.97 21.76 12.96 20.77C12.08 20.72 11.2 20.61 10.36 20.34C8.88 19.87 7.56 18.88 6.75 17.55C6.1 16.48 5.82 15.23 5.82 13.99C5.82 13.48 5.82 12.96 5.82 12.45C5.95 12.44 6.08 12.44 6.21 12.45C6.65 13.14 7.05 13.87 7.55 14.53C8.11 15.27 8.77 15.97 9.62 16.4C10.02 16.59 10.44 16.75 10.87 16.89C11.55 17.09 12.25 17.18 12.96 17.19C12.98 16.28 12.96 15.35 12.97 14.43C12.96 14.38 12.98 14.32 12.92 14.29C10.57 12.72 8.21 11.15 5.85 9.58C5.85 9.57 5.86 9.56 5.86 9.55C8.22 7.98 10.58 6.4 12.94 4.82Z" />
		</g>
		<g id="_ffffffff">
			<path id="Path" class="shp1" d="M12.86 0.9C13.13 0.85 13.39 0.95 13.57 1.14C13.84 1.42 13.83 1.91 13.57 2.19C13.35 2.43 13.01 2.51 12.7 2.39C12.36 2.27 12.14 1.87 12.22 1.51C12.29 1.19 12.54 0.95 12.86 0.9Z" />
			<path id="Shape" fill-rule="evenodd" class="shp1" d="M3.23 1.47C4.45 1.45 5.67 1.47 6.89 1.46C6.89 1.82 6.88 2.18 6.89 2.53C6.92 3 7.36 3.4 7.83 3.39C11.27 3.39 14.7 3.39 18.15 3.39C18.62 3.4 19.05 3 19.08 2.53C19.09 2.18 19.08 1.82 19.08 1.46C20.26 1.46 21.43 1.46 22.6 1.46C23.09 1.46 23.52 1.91 23.51 2.4C23.51 9.64 23.51 16.89 23.51 24.13C23.53 24.65 23.04 25.11 22.52 25.07L3.4 25.07C2.89 25.1 2.42 24.64 2.43 24.13C2.43 16.89 2.43 9.64 2.43 2.4C2.42 1.95 2.78 1.53 3.23 1.47ZM12.94 4.82C10.58 6.4 8.22 7.97 5.86 9.55C5.86 9.56 5.85 9.57 5.85 9.58C8.21 11.15 10.57 12.72 12.92 14.29C12.98 14.32 12.96 14.39 12.97 14.44C12.96 15.36 12.98 16.28 12.96 17.2C12.25 17.18 11.55 17.09 10.87 16.89C10.44 16.76 10.02 16.59 9.62 16.4C8.77 15.98 8.11 15.28 7.55 14.53C7.05 13.87 6.65 13.15 6.21 12.46C6.08 12.44 5.95 12.44 5.82 12.45C5.82 12.97 5.82 13.48 5.82 13.99C5.82 15.23 6.1 16.48 6.75 17.55C7.56 18.88 8.88 19.88 10.37 20.34C11.2 20.61 12.08 20.73 12.96 20.77C12.98 21.76 12.97 22.75 12.97 23.74L12.99 23.75C15.36 22.17 17.72 20.59 20.09 19.01C20.09 19.01 20.1 18.99 20.1 18.98C17.74 17.41 15.38 15.84 13.03 14.27C12.97 14.24 12.99 14.17 12.98 14.12C12.99 13.2 12.97 12.28 12.99 11.36C13.7 11.38 14.4 11.47 15.08 11.67C15.51 11.8 15.93 11.97 16.33 12.16C17.17 12.58 17.83 13.28 18.39 14.01C18.89 14.68 19.29 15.41 19.74 16.1C19.87 16.12 20 16.12 20.13 16.11C20.13 15.59 20.13 15.08 20.13 14.57C20.13 13.33 19.85 12.08 19.2 11.01C18.39 9.68 17.07 8.68 15.59 8.22C14.75 7.95 13.87 7.83 12.99 7.79C12.98 6.8 12.99 5.81 12.99 4.82L12.94 4.82Z" />
		</g>
	</g>
</svg>