<svg xmlns="http://www.w3.org/2000/svg" viewBox="0 0 32 32" width="32" height="32"><style>tspan { white-space:pre }.shp0 { display: none;fill: #000000 } .shp1 { fill: none;stroke: #92bae1;stroke-linecap:round;stroke-linejoin:round;stroke-width: 1.95 } .shp2 { fill: none;stroke: #0460ba;stroke-linecap:round;stroke-linejoin:round;stroke-width: 1.95 } </style><g id="design-21"><path id="Path" class="shp0" d="M0 0L31.2 0L31.2 31.2L0 31.2L0 0Z" /><path id="Path" class="shp1" d="M14.3 22.1L18.2 22.1C19.64 22.1 20.8 20.94 20.8 19.5L20.8 13C20.8 11.56 19.64 10.4 18.2 10.4L11.7 10.4C10.26 10.4 9.1 11.56 9.1 13L9.1 16.9" /><path id="Path" class="shp1" d="M20.8 18.2L24.7 18.2C26.14 18.2 27.3 17.04 27.3 15.6L27.3 6.5C27.3 5.06 26.14 3.9 24.7 3.9L15.6 3.9C14.16 3.9 13 5.06 13 6.5L13 10.4" /><path id="Path" class="shp2" d="M11.7 27.3L6.5 27.3C5.06 27.3 3.9 26.14 3.9 24.7L3.9 19.5C3.9 18.06 5.06 16.9 6.5 16.9L11.7 16.9C13.14 16.9 14.3 18.06 14.3 19.5L14.3 24.7C14.3 26.14 13.14 27.3 11.7 27.3Z" /></g></svg>