<svg xmlns="http://www.w3.org/2000/svg" viewBox="0 0 24 24" width="24" height="24"><style>tspan { white-space:pre }.shp0 { display: none;fill: #000000 } .shp1 { fill: #ffffff } </style><g id="facebook-circle-line"><path id="Path" class="shp0" d="M0 0L24 0L24 24L0 24L0 0Z" /><path id="Shape" fill-rule="evenodd" class="shp1" d="M13 14L15 14L15.5 12L13 12L13 10.34C13 9.43 13.04 9.2 13.16 8.98C13.23 8.84 13.34 8.73 13.48 8.66C13.7 8.54 14.08 8.5 15 8.5L15.5 8.5L15.5 6.6C14.98 6.52 14.55 6.5 14.22 6.52C13.39 6.57 12.92 6.69 12.54 6.9C12.05 7.16 11.66 7.55 11.4 8.03C11.14 8.52 11 9.01 11 10.35L11 12L9 12L9 14L11 14L11 19.94C6.81 19.41 3.75 15.72 4.01 11.5C4.27 7.28 7.77 4 12 4C16.22 4.01 19.71 7.29 19.98 11.5C20.24 15.71 17.19 19.41 13 19.94L13 14ZM22 12C22 6.48 17.52 2 12 2C6.48 2 2 6.48 2 12C2 17.52 6.48 22 12 22C17.52 22 22 17.52 22 12Z" /></g></svg>