<svg xmlns="http://www.w3.org/2000/svg" viewBox="0 0 24 24" width="24" height="24">
	<style>
		tspan { white-space:pre }
		.shp0 { fill: #f7c31f } 
		.shp1 { fill: #ffffff } 
		.shp2 { fill: #0460ba } 
	</style>
	<g id="FileSeek">
		<path id="Path" class="shp0" d="M14.34 16.44L16.44 14.35C16.76 14.03 17.27 14.03 17.59 14.35L23.75 20.5C24.07 20.82 24.07 21.34 23.75 21.65L21.65 23.75C21.33 24.07 20.82 24.07 20.5 23.75L14.34 17.59C14.03 17.27 14.03 16.76 14.34 16.44Z" />
		<path id="Path" class="shp1" d="M8.09 1.57C11.69 1.57 14.61 4.49 14.61 8.09C14.61 11.69 11.69 14.61 8.09 14.61C4.49 14.61 1.57 11.69 1.57 8.09C1.57 4.49 4.49 1.57 8.09 1.57Z" />
		<path id="Shape" fill-rule="evenodd" class="shp2" d="M8.1 0C12.58 0 16.21 3.63 16.21 8.1C16.21 9.86 15.64 11.56 14.59 12.96L15.63 14.01L14.01 15.63L12.96 14.59C11.56 15.64 9.86 16.21 8.1 16.21C3.63 16.21 0 12.58 0 8.1C0 3.63 3.63 0 8.1 0ZM8.1 1.62C4.52 1.62 1.62 4.52 1.62 8.1C1.62 11.68 4.52 14.59 8.1 14.59C11.68 14.59 14.59 11.68 14.59 8.1C14.59 4.52 11.68 1.62 8.1 1.62Z" />
	</g>
</svg>