<svg xmlns="http://www.w3.org/2000/svg" viewBox="0 0 576 475" width="576" height="475">
	<defs>
		<radialGradient id="grd1" gradientUnits="userSpaceOnUse"  cx="288.045" cy="449.603" r="25.272">
			<stop offset="0" stop-color="#1a233b" stop-opacity="0.16" />
			<stop offset="0.69" stop-color="#2f3d5e" stop-opacity="0.12" />
			<stop offset="1" stop-color="#38496d" stop-opacity="0" />
		</radialGradient>
		<linearGradient id="grd2" gradientUnits="userSpaceOnUse"  x1="320.871" y1="25.724" x2="321.523" y2="26.568">
			<stop offset="0" stop-color="#564354" stop-opacity="0" />
			<stop offset="1" stop-color="#2b202a"  />
		</linearGradient>
		<linearGradient id="grd3" gradientUnits="userSpaceOnUse"  x1="443.871" y1="47.724" x2="444.522" y2="48.568">
			<stop offset="0" stop-color="#564354" stop-opacity="0" />
			<stop offset="1" stop-color="#2b202a"  />
		</linearGradient>
		<linearGradient id="grd4" gradientUnits="userSpaceOnUse"  x1="181.271" y1="49.724" x2="181.923" y2="50.568">
			<stop offset="0" stop-color="#564354" stop-opacity="0" />
			<stop offset="1" stop-color="#2b202a"  />
		</linearGradient>
	</defs>
	<style>
		tspan { white-space:pre }
		.shp0 { fill: url(#grd1) } 
		.shp1 { fill: #936045 } 
		.shp2 { fill: #645470 } 
		.shp3 { fill: #5b4965 } 
		.shp4 { fill: #e6ceba } 
		.shp5 { fill: #a7a7b7 } 
		.shp6 { fill: #c4c4c5 } 
		.shp7 { fill: #37374f } 
		.shp8 { fill: #62627c } 
		.shp9 { fill: none;stroke: #37374f;stroke-width: 1.108 } 
		.shp10 { fill: #ffffff } 
		.shp11 { fill: none;stroke: #fffcfa;stroke-width: 2.216 } 
		.shp12 { opacity: 0.549;fill: #b4c9ff } 
		.shp13 { fill: #ff95a9 } 
		.shp14 { fill: #e5649a } 
		.shp15 { fill: #ffc359 } 
		.shp16 { fill: #e5b587 } 
		.shp17 { fill: #9f7159 } 
		.shp18 { fill: #4f2f21 } 
		.shp19 { fill: #fff6f5 } 
		.shp20 { fill: #ffe4e1 } 
		.shp21 { fill: #f4bb9c } 
		.shp22 { fill: #fed2ba } 
		.shp23 { fill: #0460ba } 
		.shp24 { fill: #f7ead5 } 
		.shp25 { fill: none;stroke: #333333;stroke-linecap:round;stroke-linejoin:round;stroke-width: 0.5 } 
		.shp26 { fill: none;stroke: #2773bf;stroke-linecap:round;stroke-linejoin:round;stroke-width: 0.554 } 
		.shp27 { fill: #f5faff } 
		.shp28 { fill: #e1a382 } 
		.shp29 { fill: #945661 } 
		.shp30 { fill: none;stroke: #38384f;stroke-linecap:round;stroke-linejoin:round;stroke-width: 0.5 } 
		.shp31 { fill: #38384f } 
		.shp32 { fill: #503535 } 
		.shp33 { fill: none;stroke: #242638;stroke-linejoin:round;stroke-width: 0.5 } 
		.shp34 { fill: #242638 } 
		.shp35 { fill: #1a233b } 
		.shp36 { fill: #eaeef2 } 
		.shp37 { fill: none;stroke: #37374f;stroke-linecap:round;stroke-linejoin:round;stroke-width: 0.554 } 
		.shp38 { fill: none;stroke: #38384f;stroke-width: 0.554 } 
		.shp39 { fill: url(#grd2) } 
		.shp40 { fill: #9ac5f7 } 
		.shp41 { fill: #452c3d } 
		.shp42 { fill: #e8ebf3 } 
		.shp43 { fill: #d7dce9 } 
		.shp44 { fill: #ffff84 } 
		.shp45 { fill: #a7ff84 } 
		.shp46 { fill: url(#grd3) } 
		.shp47 { fill: url(#grd4) } 
	</style>
	<g id="Group 28 Copy">
		<g id="Group 27">
			<g id="18043648 [Converted]">
				<g id="Group">
					<path id="Oval" class="shp0" d="M288.05 474.87C446.83 474.87 575.55 463.46 575.55 449.37C575.55 435.29 446.83 423.87 288.05 423.87C129.26 423.87 0.55 435.29 0.55 449.37C0.55 463.46 129.26 474.87 288.05 474.87Z" />
					<g id="Group">
						<path id="Path" class="shp1" d="M123.96 360.63L102.83 360.63C102.26 360.63 101.8 361.09 101.8 361.66L101.8 370.08C101.8 370.65 102.26 371.11 102.83 371.11L123.96 371.11C124.53 371.11 124.99 370.65 124.99 370.08L124.99 361.66C124.99 361.09 124.53 360.63 123.96 360.63Z" />
						<path id="Path" class="shp1" d="M137.62 372.38L116.49 372.38C115.92 372.38 115.46 372.85 115.46 373.42L115.46 381.83C115.46 382.4 115.92 382.87 116.49 382.87L137.62 382.87C138.19 382.87 138.65 382.4 138.65 381.83L138.65 373.42C138.65 372.85 138.19 372.38 137.62 372.38Z" />
						<path id="Path" class="shp1" d="M148.89 360.47L127.77 360.47C127.2 360.47 126.74 360.94 126.74 361.51L126.74 369.92C126.74 370.49 127.2 370.96 127.77 370.96L148.89 370.96C149.46 370.96 149.92 370.49 149.92 369.92L149.92 361.51C149.92 360.94 149.46 360.47 148.89 360.47Z" />
						<path id="Path" class="shp1" d="M137.14 348.72L116.02 348.72C115.45 348.72 114.98 349.18 114.98 349.75L114.98 358.17C114.98 358.74 115.45 359.2 116.02 359.2L137.14 359.2C137.71 359.2 138.17 358.74 138.17 358.17L138.17 349.75C138.17 349.18 137.71 348.72 137.14 348.72Z" />
						<path id="Path" class="shp1" d="M161.6 348.72L140.47 348.72C139.9 348.72 139.44 349.18 139.44 349.75L139.44 358.17C139.44 358.74 139.9 359.2 140.47 359.2L161.6 359.2C162.17 359.2 162.63 358.74 162.63 358.17L162.63 349.75C162.63 349.18 162.17 348.72 161.6 348.72Z" />
						<path id="Path" class="shp1" d="M173.35 360.47L152.23 360.47C151.66 360.47 151.19 360.94 151.19 361.51L151.19 369.92C151.19 370.49 151.66 370.96 152.23 370.96L173.35 370.96C173.92 370.96 174.38 370.49 174.38 369.92L174.38 361.51C174.38 360.94 173.92 360.47 173.35 360.47Z" />
						<path id="Path" class="shp1" d="M162.39 372.23L141.27 372.23C140.7 372.23 140.24 372.69 140.24 373.26L140.24 381.68C140.24 382.25 140.7 382.71 141.27 382.71L162.39 382.71C162.96 382.71 163.42 382.25 163.42 381.68L163.42 373.26C163.42 372.69 162.96 372.23 162.39 372.23Z" />
						<path id="Path" class="shp1" d="M134.6 325.21L113.47 325.21C112.9 325.21 112.44 325.68 112.44 326.25L112.44 334.66C112.44 335.23 112.9 335.7 113.47 335.7L134.6 335.7C135.17 335.7 135.63 335.23 135.63 334.66L135.63 326.25C135.63 325.68 135.17 325.21 134.6 325.21Z" />
						<path id="Path" class="shp1" d="M149.37 336.97L128.25 336.97C127.67 336.97 127.21 337.43 127.21 338L127.21 346.42C127.21 346.99 127.67 347.45 128.25 347.45L149.37 347.45C149.94 347.45 150.4 346.99 150.4 346.42L150.4 338C150.4 337.43 149.94 336.97 149.37 336.97Z" />
						<path id="Path" class="shp1" d="M124.75 336.97L103.63 336.97C103.06 336.97 102.6 337.43 102.6 338L102.6 346.42C102.6 346.99 103.06 347.45 103.63 347.45L124.75 347.45C125.32 347.45 125.78 346.99 125.78 346.42L125.78 338C125.78 337.43 125.32 336.97 124.75 336.97Z" />
					</g>
					<g id="Group">
						<path id="Rectangle" class="shp2" d="M95.64 316.98L526.54 316.98L526.54 446.07L95.64 446.07L95.64 316.98Z" />
						<path id="Rectangle" class="shp3" d="M95.64 330.83L526.54 330.83L526.54 345.23L95.64 345.23L95.64 330.83Z" />
						<path id="Rectangle" class="shp3" d="M95.64 362.22L526.54 362.22L526.54 376.63L95.64 376.63L95.64 362.22Z" />
						<path id="Rectangle" class="shp3" d="M95.64 393.99L526.54 393.99L526.54 408.39L95.64 408.39L95.64 393.99Z" />
						<path id="Rectangle" class="shp3" d="M95.64 423.17L526.54 423.17L526.54 437.57L95.64 437.57L95.64 423.17Z" />
						<path id="Rectangle" class="shp4" d="M82.44 312.36L543.78 312.36L543.78 321.96L82.44 321.96L82.44 312.36Z" />
					</g>
					<g id="Group">
						<path id="Rectangle" class="shp5" d="M409.49 250.77L420.99 250.77L420.99 257.62L409.49 257.62L409.49 250.77Z" />
						<path id="Rectangle" class="shp6" d="M406.1 245.64L424.38 245.64L424.38 253.12L406.1 253.12L406.1 245.64Z" />
						<path id="Rectangle" class="shp6" d="M402.36 255.2L409.56 255.2L409.56 256.72L402.36 256.72L402.36 255.2Z" />
						<path id="Path" class="shp7" d="M403.92 257.04L403.92 254.82L388.96 254.27C387.9 254.23 387.02 255.08 387.02 256.14L387.02 256.14C387.02 257.23 387.93 258.08 389.02 258.01L403.92 257.04Z" />
						<path id="Rectangle" class="shp6" d="M429.65 242.92L486.53 242.92L486.53 304.97L429.65 304.97L429.65 242.92Z" />
						<path id="Rectangle" class="shp8" d="M399.73 232.21L486.53 232.21L486.53 246.61L399.73 246.61L399.73 232.21Z" />
						<path id="Rectangle" class="shp8" d="M399.73 297.95L486.53 297.95L486.53 312.36L399.73 312.36L399.73 297.95Z" />
						<path id="Path" class="shp9" d="M441.97 232.21L441.97 311.99" />
						<g id="Group">
							<path id="Rectangle" class="shp10" d="M405.73 283.92L421.52 283.92L421.52 294.1L405.73 294.1L405.73 283.92Z" />
							<path id="Rectangle" class="shp10" d="M407.32 292.02L419.93 292.02L419.93 295.76L407.32 295.76L407.32 292.02Z" />
							<path id="Path" class="shp11" d="M406.98 286.64C406.98 286.64 402.61 285.23 401.37 287.66C400.59 289.16 401.85 292.05 406.33 292.32" />
						</g>
						<path id="Rectangle" class="shp7" d="M399.82 295.74L429.65 295.74L429.65 297.97L399.82 297.97L399.82 295.74Z" />
						<path id="Path" class="shp7" d="M481.26 299.89L481.26 299.89C481.01 299.89 480.8 300.1 480.8 300.36L480.8 309.87C480.8 310.12 481.01 310.33 481.26 310.33L481.26 310.33C481.52 310.33 481.73 310.12 481.73 309.87L481.73 300.36C481.73 300.1 481.52 299.89 481.26 299.89Z" />
						<path id="Path" class="shp7" d="M478.59 299.89L478.59 299.89C478.33 299.89 478.12 300.1 478.12 300.36L478.12 309.87C478.12 310.12 478.33 310.33 478.59 310.33L478.59 310.33C478.84 310.33 479.05 310.12 479.05 309.87L479.05 300.36C479.05 300.1 478.84 299.89 478.59 299.89Z" />
						<path id="Path" class="shp7" d="M475.63 299.89L475.63 299.89C475.38 299.89 475.17 300.1 475.17 300.36L475.17 309.87C475.17 310.12 475.38 310.33 475.63 310.33L475.63 310.33C475.88 310.33 476.09 310.12 476.09 309.87L476.09 300.36C476.09 300.1 475.88 299.89 475.63 299.89Z" />
						<path id="Path" class="shp7" d="M472.95 299.89L472.95 299.89C472.7 299.89 472.49 300.1 472.49 300.36L472.49 309.87C472.49 310.12 472.7 310.33 472.95 310.33L472.95 310.33C473.21 310.33 473.41 310.12 473.41 309.87L473.41 300.36C473.41 300.1 473.21 299.89 472.95 299.89Z" />
						<path id="Path" class="shp7" d="M469.81 299.89L469.81 299.89C469.56 299.89 469.35 300.1 469.35 300.36L469.35 309.87C469.35 310.12 469.56 310.33 469.81 310.33L469.81 310.33C470.07 310.33 470.28 310.12 470.28 309.87L470.28 300.36C470.28 300.1 470.07 299.89 469.81 299.89Z" />
						<path id="Path" class="shp7" d="M467.14 299.89L467.14 299.89C466.88 299.89 466.67 300.1 466.67 300.36L466.67 309.87C466.67 310.12 466.88 310.33 467.14 310.33L467.14 310.33C467.39 310.33 467.6 310.12 467.6 309.87L467.6 300.36C467.6 300.1 467.39 299.89 467.14 299.89Z" />
					</g>
					<g id="Group">
						<path id="Rectangle" class="shp12" d="M127.48 266.28L203.69 266.28L203.69 310.33L127.48 310.33L127.48 266.28Z" />
						<path id="Rectangle" class="shp7" d="M127.32 306.67L203.87 306.67L203.87 312.36L127.32 312.36L127.32 306.67Z" />
						<path id="Rectangle" class="shp7" d="M127.32 288.17L203.87 288.17L203.87 292.14L127.32 292.14L127.32 288.17Z" />
						<path id="Rectangle" class="shp7" d="M127.32 264.9L203.87 264.9L203.87 268.87L127.32 268.87L127.32 264.9Z" />
						<g id="Group">
							<path id="Path" class="shp13" d="M149.33 297.31C149.33 296.52 148.7 295.89 147.91 295.89C147.13 295.89 146.49 296.52 146.49 297.31C146.49 298.09 147.13 298.73 147.91 298.73C148.7 298.73 149.33 298.09 149.33 297.31Z" />
							<path id="Rectangle" class="shp4" d="M134.71 298.79L150.87 298.79L150.87 306.63L134.71 306.63L134.71 298.79Z" />
							<path id="Rectangle" class="shp13" d="M134.71 303.74L150.87 303.74L150.87 304.55L134.71 304.55L134.71 303.74Z" />
							<path id="Rectangle" class="shp13" d="M134.71 301.2L150.87 301.2L150.87 302.01L134.71 302.01L134.71 301.2Z" />
							<path id="Path" class="shp14" d="M151.42 306.69L150.31 306.69L150.31 299.35L134.64 299.51L134.63 298.4L150.86 298.23C151.06 298.23 151.15 298.29 151.26 298.39C151.36 298.5 151.42 298.64 151.42 298.79L151.42 306.69L151.42 306.69Z" />
						</g>
						<g id="Group">
							<path id="Oval" class="shp15" d="M191.96 280.17C192.74 280.17 193.38 279.53 193.38 278.75C193.38 277.96 192.74 277.33 191.96 277.33C191.18 277.33 190.54 277.96 190.54 278.75C190.54 279.53 191.18 280.17 191.96 280.17Z" />
							<path id="Rectangle" class="shp4" d="M178.76 280.23L194.92 280.23L194.92 288.07L178.76 288.07L178.76 280.23Z" />
							<path id="Rectangle" class="shp13" d="M178.76 285.18L194.92 285.18L194.92 285.99L178.76 285.99L178.76 285.18Z" />
							<path id="Rectangle" class="shp13" d="M178.76 282.64L194.92 282.64L194.92 283.45L178.76 283.45L178.76 282.64Z" />
							<path id="Path" class="shp2" d="M195.47 288.13L194.36 288.13L194.36 280.79L178.69 280.95L178.67 279.84L194.91 279.67C195.11 279.67 195.2 279.73 195.3 279.83C195.41 279.94 195.47 280.08 195.47 280.23L195.47 288.13L195.47 288.13Z" />
						</g>
						<g id="Group">
							<path id="Rectangle" class="shp16" d="M156.04 298.79L172.2 298.79L172.2 306.63L156.04 306.63L156.04 298.79Z" />
							<path id="Rectangle" class="shp17" d="M156.04 303.74L172.2 303.74L172.2 304.55L156.04 304.55L156.04 303.74Z" />
							<path id="Rectangle" class="shp17" d="M156.04 301.2L172.2 301.2L172.2 302.01L156.04 302.01L156.04 301.2Z" />
							<path id="Path" class="shp1" d="M172.75 306.69L171.65 306.69L171.65 299.35L155.97 299.51L155.96 298.4L172.19 298.23C172.39 298.23 172.48 298.29 172.59 298.39C172.69 298.5 172.75 298.64 172.75 298.79L172.75 306.69L172.75 306.69Z" />
						</g>
						<g id="Group">
							<path id="Rectangle" class="shp16" d="M156.04 280.36L172.2 280.36L172.2 288.21L156.04 288.21L156.04 280.36Z" />
							<path id="Rectangle" class="shp4" d="M156.04 285.32L172.2 285.32L172.2 286.12L156.04 286.12L156.04 285.32Z" />
							<path id="Rectangle" class="shp4" d="M156.04 282.78L172.2 282.78L172.2 283.58L156.04 283.58L156.04 282.78Z" />
							<path id="Path" class="shp14" d="M172.75 288.27L171.65 288.27L171.65 280.92L155.97 281.09L155.96 279.98L172.19 279.81C172.39 279.8 172.48 279.87 172.59 279.97C172.69 280.07 172.75 280.22 172.75 280.36L172.75 288.27L172.75 288.27Z" />
						</g>
						<g id="Group">
							<path id="Rectangle" class="shp16" d="M134.25 280.36L150.41 280.36L150.41 288.21L134.25 288.21L134.25 280.36Z" />
							<path id="Rectangle" class="shp4" d="M134.25 285.32L150.41 285.32L150.41 286.12L134.25 286.12L134.25 285.32Z" />
							<path id="Rectangle" class="shp4" d="M134.25 282.78L150.41 282.78L150.41 283.58L134.25 283.58L134.25 282.78Z" />
							<path id="Path" class="shp14" d="M150.96 288.27L149.85 288.27L149.85 280.92L134.18 281.09L134.17 279.98L150.4 279.81C150.6 279.8 150.69 279.87 150.8 279.97C150.9 280.07 150.96 280.22 150.96 280.36L150.96 288.27L150.96 288.27Z" />
						</g>
						<g id="Group">
							<path id="Rectangle" class="shp1" d="M177.65 298.79L193.81 298.79L193.81 306.63L177.65 306.63L177.65 298.79Z" />
							<path id="Rectangle" class="shp17" d="M177.65 303.74L193.81 303.74L193.81 304.55L177.65 304.55L177.65 303.74Z" />
							<path id="Rectangle" class="shp17" d="M177.65 301.2L193.81 301.2L193.81 302.01L177.65 302.01L177.65 301.2Z" />
							<path id="Path" class="shp18" d="M194.36 306.69L193.25 306.69L193.25 299.35L177.58 299.51L177.57 298.4L193.8 298.23C194 298.23 194.09 298.29 194.2 298.39C194.3 298.5 194.36 298.64 194.36 298.79L194.36 306.69L194.36 306.69Z" />
						</g>
					</g>
					<g id="Group">
						<path id="Rectangle" class="shp19" d="M501.99 257.39L516.95 262.45L513.69 272.09L498.73 267.03L501.99 257.39Z" />
						<path id="Rectangle" class="shp19" d="M500.9 265.57L512.84 269.62L511.64 273.16L499.7 269.12L500.9 265.57Z" />
						<path id="Path" class="shp19" d="M499.44 266.58C496.99 265.58 495.37 263.9 495 261.99C494.75 260.74 495.09 259.53 495.89 258.75C497.96 256.74 501.31 258.27 502.96 259.49L501.64 261.27C500.88 260.71 498.47 259.34 497.43 260.34C497.24 260.53 497.05 260.96 497.17 261.57C497.28 262.12 497.8 263.51 500.28 264.53L499.44 266.58Z" />
					</g>
					<g id="Group">
						<path id="Rectangle" class="shp20" d="M498.44 270.14L514.23 270.14L514.23 280.32L498.44 280.32L498.44 270.14Z" />
						<path id="Rectangle" class="shp20" d="M500.03 278.24L512.64 278.24L512.64 281.98L500.03 281.98L500.03 278.24Z" />
						<path id="Path" class="shp20" d="M498.97 279.65C496.32 279.48 494.25 278.42 493.28 276.72C492.65 275.61 492.58 274.36 493.09 273.37C494.41 270.8 498.07 271.18 500.03 271.81L499.35 273.92C498.45 273.63 495.72 273.1 495.06 274.38C494.94 274.62 494.91 275.09 495.21 275.63C495.49 276.11 496.42 277.27 499.11 277.43L498.97 279.65Z" />
					</g>
					<g id="Group">
						<path id="Rectangle" class="shp19" d="M498.44 280.32L514.23 280.32L514.23 290.5L498.44 290.5L498.44 280.32Z" />
						<path id="Rectangle" class="shp19" d="M500.03 288.42L512.64 288.42L512.64 292.16L500.03 292.16L500.03 288.42Z" />
						<path id="Path" class="shp19" d="M498.97 289.83C496.32 289.66 494.25 288.6 493.28 286.9C492.65 285.79 492.58 284.54 493.09 283.55C494.41 280.98 498.07 281.36 500.03 281.99L499.35 284.1C498.45 283.81 495.72 283.28 495.06 284.56C494.94 284.8 494.91 285.27 495.21 285.81C495.49 286.3 496.42 287.45 499.11 287.61L498.97 289.83Z" />
					</g>
					<g id="Group">
						<path id="Rectangle" class="shp20" d="M498.44 290.36L514.23 290.36L514.23 300.54L498.44 300.54L498.44 290.36Z" />
						<path id="Rectangle" class="shp20" d="M500.03 298.46L512.64 298.46L512.64 302.2L500.03 302.2L500.03 298.46Z" />
						<path id="Path" class="shp20" d="M498.97 299.87C496.32 299.71 494.25 298.64 493.28 296.94C492.65 295.84 492.58 294.58 493.09 293.59C494.41 291.02 498.07 291.4 500.03 292.03L499.35 294.14C498.45 293.85 495.72 293.32 495.06 294.61C494.94 294.84 494.91 295.31 495.21 295.85C495.49 296.34 496.42 297.49 499.11 297.66L498.97 299.87Z" />
					</g>
					<g id="Group">
						<path id="Rectangle" class="shp19" d="M498.44 300.54L514.23 300.54L514.23 310.72L498.44 310.72L498.44 300.54Z" />
						<path id="Rectangle" class="shp19" d="M500.03 308.64L512.64 308.64L512.64 312.38L500.03 312.38L500.03 308.64Z" />
						<path id="Path" class="shp19" d="M498.97 310.05C496.32 309.89 494.25 308.82 493.28 307.13C492.65 306.02 492.58 304.76 493.09 303.77C494.41 301.2 498.07 301.58 500.03 302.21L499.35 304.32C498.45 304.03 495.72 303.5 495.06 304.79C494.94 305.02 494.91 305.49 495.21 306.03C495.49 306.52 496.42 307.67 499.11 307.84L498.97 310.05Z" />
					</g>
				</g>
			</g>
			<g id="Group">
				<path id="Path" class="shp21" d="M132.25 292.18L134.86 301.82L142.3 314.49L141.2 320.27L137.62 327.71C137.62 327.71 136.93 327.57 137.48 325.92L136.1 326.74C136.1 326.74 136.1 325.78 136.24 324.13L134.45 325.5C134.45 325.5 134.04 324.68 134.86 323.3C135.69 321.92 135.69 317.79 135.69 317.79L133.76 313.66L134.18 322.75C134.18 322.75 132.25 323.58 128.39 304.02L123.99 288.46L132.25 292.18Z" />
				<g id="Group">
					<path id="Path" class="shp22" d="M67.15 436.07L68.34 404.35L77.81 405.77L76.32 436.86L67.15 436.07Z" />
					<g id="Group">
						<path id="Path" class="shp23" d="M67.11 432.96C67.11 432.96 64.18 440.84 65.47 446.93L99.54 447.55C99.54 447.55 101.76 441.05 94.09 439.28C86.42 437.51 76.62 431.47 76.62 431.47C76.62 431.47 71.7 437.01 67.11 432.96Z" />
						<path id="Path" class="shp24" d="M65.46 446.93L99.53 447.55C99.53 447.55 100.07 445.95 99.69 444.13L65.14 443.51C65.14 444.67 65.23 445.83 65.46 446.93Z" />
						<path id="Path" class="shp25" d="M75.7 433.96C76 433.39 76.34 432.83 76.84 432.43C77.56 431.86 78.5 431.68 79.41 431.58C80.21 431.49 81.01 431.45 81.8 431.45C82.84 431.46 83.94 431.56 84.79 432.16C85.05 432.34 85.3 432.63 85.22 432.94C85.17 433.17 84.96 433.33 84.74 433.42C84.05 433.72 83.26 433.61 82.52 433.49C80.73 433.17 78.96 432.78 77.2 432.31C77.43 433.26 77.53 434.25 77.49 435.23C77.45 436.15 77.29 437.09 76.85 437.89C76.65 438.24 76.4 438.57 76.06 438.76C75.71 438.96 75.26 439 74.92 438.81C74.58 438.61 74.4 438.21 74.37 437.81C74.35 437.42 74.45 437.03 74.57 436.66C74.87 435.73 75.25 434.82 75.7 433.96Z" />
					</g>
					<path id="Path" class="shp25" d="M99.69 444.13L65.14 443.51" />
					<path id="Path" class="shp25" d="M66.84 433.94C66.84 433.94 73.52 435.94 74.63 443.62" />
					<path id="Path" class="shp25" d="M97.67 440.95L89.05 440.98C85.5 441 82.03 441.92 78.94 443.65L78.8 443.73" />
					<path id="Path" class="shp25" d="M73.96 433.55L85.98 439.45L87.65 437.16" />
				</g>
				<g id="Group">
					<path id="Path" class="shp22" d="M117.61 434.21L114.48 403.77L124.48 404.01L126.77 435L117.61 434.21Z" />
					<g id="Group">
						<path id="Path" class="shp23" d="M117.1 432.49C117.1 432.49 114.18 440.38 115.47 446.47L149.53 447.09C149.53 447.09 151.75 440.59 144.08 438.82C136.41 437.04 126.61 431 126.61 431C126.61 431 121.7 436.55 117.1 432.49Z" />
						<path id="Path" class="shp24" d="M115.46 446.47L149.52 447.08C149.52 447.08 150.07 445.49 149.68 443.66L115.13 443.04C115.13 444.2 115.22 445.37 115.46 446.47Z" />
						<path id="Path" class="shp25" d="M125.7 433.49C126 432.93 126.34 432.37 126.84 431.97C127.55 431.39 128.5 431.21 129.41 431.11C130.2 431.02 131 430.98 131.8 430.99C132.84 430.99 133.93 431.09 134.78 431.7C135.04 431.88 135.29 432.17 135.22 432.48C135.17 432.71 134.95 432.86 134.73 432.96C134.05 433.26 133.25 433.15 132.51 433.02C130.73 432.71 128.95 432.32 127.2 431.84C127.42 432.8 127.52 433.78 127.48 434.76C127.45 435.69 127.29 436.62 126.84 437.43C126.65 437.78 126.39 438.1 126.05 438.3C125.7 438.49 125.26 438.54 124.91 438.34C124.57 438.14 124.39 437.74 124.37 437.35C124.34 436.96 124.45 436.57 124.57 436.19C124.86 435.26 125.24 434.36 125.7 433.49Z" />
					</g>
					<path id="Path" class="shp25" d="M149.68 443.66L115.13 443.04" />
					<path id="Path" class="shp25" d="M116.83 433.47C116.83 433.47 123.51 435.47 124.62 443.16" />
					<path id="Path" class="shp25" d="M147.67 440.48L139.04 440.52C135.5 440.53 132.02 441.45 128.93 443.19L128.8 443.27" />
					<path id="Path" class="shp25" d="M123.95 433.08L135.98 438.98L137.65 436.7" />
				</g>
				<path id="Path" class="shp7" d="M67.05 284.02L68.21 367.73L65.42 421.91L82.39 423.54L89.14 369.36L96.11 323.55C96.11 323.55 104.25 369.59 104.25 371.45C104.25 373.31 109.83 421.68 109.83 421.68L128.43 421.21L125.88 370.06L117.74 279.84L75.18 279.14L67.05 284.02Z" />
				<path id="Path" class="shp26" d="M96.11 323.55L96.11 285.54L103.44 285.54L102.4 311.29L96.2 320.07" />
				<path id="Path" class="shp26" d="M120.88 314.48C120.88 314.48 113.03 314.48 111.28 290.42" />
				<path id="Path" class="shp26" d="M71.23 304.72L72.16 366.8L67.98 422.14" />
				<path id="Path" class="shp27" d="M71.7 212.64L67.16 297.22L121.05 297.05L110.76 211.24L97.74 200.78L80.3 202.64L71.7 212.64Z" />
				<path id="Path" class="shp22" d="M80.96 182.8C80.96 182.8 82.73 197.27 80.87 200.43C79.02 203.59 95.92 207.83 98.58 200.01C98.62 199.9 97.17 197.84 96.6 190.56L80.96 182.8Z" />
				<path id="Path" class="shp28" d="M81.66 189.39C81.62 188.97 81.21 185.56 81.18 185.19L96.59 190.85C96.76 192.87 96.99 194.47 97.24 195.74C88.48 200.71 82.56 192.63 81.66 189.39Z" />
				<g id="Group">
					<path id="Path" class="shp22" d="M104.24 171.35C104.09 178.89 101.92 193.89 94.39 194.21C86.47 194.55 82.29 190.44 80.69 183.13C80.69 183.13 76.82 184.84 76.73 179.45C76.69 177.07 79.42 178.15 79.42 178.15C79.42 178.15 73.57 159 85.76 156.57C97.94 154.13 104.45 161.04 104.24 171.35Z" />
					<path id="Path" class="shp29" d="M90.75 172.89C90.98 173 91.21 173.13 91.45 173.16C91.69 173.19 91.96 173.09 92.09 172.84C92.27 172.47 92.09 171.96 91.83 171.65C91.32 171.02 90.56 170.87 89.86 170.77C89.14 170.68 88.41 170.6 87.71 170.76C87 170.91 86.32 171.32 85.9 172.04C85.85 172.12 85.8 172.22 85.81 172.33C85.82 172.48 85.94 172.6 86.06 172.62C86.18 172.65 86.3 172.6 86.42 172.56C87.82 172.09 89.37 172.2 90.75 172.89Z" />
					<path id="Path" class="shp29" d="M98.2 173.27C97.99 173.37 97.77 173.49 97.56 173.5C97.34 173.52 97.11 173.41 97.02 173.15C96.89 172.77 97.09 172.27 97.35 171.98C97.86 171.38 98.54 171.28 99.17 171.22C99.82 171.17 100.47 171.13 101.08 171.33C101.69 171.52 102.26 171.97 102.57 172.71C102.61 172.8 102.64 172.9 102.62 173C102.6 173.16 102.48 173.26 102.38 173.28C102.27 173.3 102.16 173.25 102.07 173.2C100.86 172.65 99.49 172.67 98.2 173.27Z" />
					<path id="Path" class="shp30" d="M95.11 177.45C94.91 179.19 95.59 180.89 96.23 182.52C96.3 182.68 96.36 182.86 96.29 183.02C96.26 183.09 96.21 183.15 96.15 183.2C95.86 183.47 95.49 183.66 95.09 183.73C94.53 183.83 93.85 183.73 93.48 184.16" />
					<path id="Oval" class="shp31" d="M100.41 176.86C100.45 175.59 99.95 174.54 99.3 174.52C98.64 174.5 98.08 175.52 98.04 176.79C98 178.06 98.5 179.11 99.15 179.13C99.81 179.15 100.37 178.14 100.41 176.86Z" />
					<path id="Path" class="shp31" d="M90.31 177.01C90.35 175.73 89.85 174.69 89.2 174.67C88.54 174.64 87.98 175.66 87.94 176.93C87.9 178.21 88.4 179.26 89.05 179.28C89.71 179.3 90.27 178.28 90.31 177.01Z" />
					<path id="Path" class="shp10" d="M98.41 185.95C98.41 185.95 93.52 187.21 88.81 185.9C88.81 185.9 90.65 189.59 93.77 189.45C96.88 189.3 98.41 185.95 98.41 185.95Z" />
					<path id="Path" class="shp30" d="M94.78 190.04C94.78 190.04 94.11 190.75 92.35 190.17" />
					<path id="Path" class="shp32" d="M106.83 165.11C107.47 164.65 108.28 164.17 108.31 163.39C108.33 162.63 107.59 162.08 106.88 161.81C106.17 161.54 105.36 161.38 104.86 160.81C106.42 160.53 107.03 158.42 106.38 156.98C105.81 155.71 104.59 154.82 103.28 154.37C101.97 153.91 100.56 153.84 99.18 153.83C96.57 153.81 93.96 154 91.39 154.4C89.22 154.74 86.83 155.18 84.99 154.01C84.46 153.68 83.98 153.21 83.37 153.1C82.39 152.92 81.45 153.76 81.17 154.72C80.88 155.67 81.07 156.7 81.26 157.67C80.21 157.37 78.99 157.27 78.11 157.92C77.23 158.57 77.12 160.19 78.12 160.63C78.45 160.77 78.87 160.8 79.04 161.11C79.24 161.46 78.96 161.87 78.71 162.18C76.72 164.64 75.76 167.9 76.1 171.04C76.44 174.19 78.06 177.17 80.53 179.16C81.29 176.42 82.48 173.82 83.35 171.11C84.21 168.4 84.74 165.48 84.12 162.71C89.22 165.88 95.63 166.3 101.55 165.24C101.99 165.16 102.49 165.08 102.87 165.33C103.28 165.59 103.39 166.13 103.48 166.6C103.78 168.37 104.08 170.13 104.38 171.9C103.74 169.42 104.76 166.61 106.83 165.11Z" />
					<path id="Path" class="shp32" d="M83.06 171.34C81.97 170.93 81.78 169.49 81.82 168.33C81.96 163.77 82.79 159.24 84.26 154.93C88.77 155.18 92.62 151.14 97.15 151.15C97.9 151.15 98.8 151.38 99.03 152.1C99.29 152.9 98.52 153.65 97.8 154.1C96.62 154.84 95.33 155.43 94 155.83C94.81 156.47 95.63 157.1 96.44 157.73C95.01 159.59 91.57 159.71 91.11 162.01C93.59 163.03 96.08 164.05 98.56 165.06C99.17 165.31 99.82 165.59 100.16 166.15C100.73 167.08 100.14 168.37 99.19 168.91C98.24 169.44 97.08 169.4 96.01 169.25C92.28 168.74 88.71 167.15 85.86 164.7C86.33 166.17 86.33 167.78 85.86 169.24C85.46 170.49 84.28 171.8 83.06 171.34Z" />
				</g>
				<path id="Path" class="shp23" d="M81.64 198.69L57.05 208.63L48.15 263.04L67.69 303.85L78.85 295.48L85.13 295.13L81.64 198.69Z" />
				<path id="Path" class="shp23" d="M97.86 198.86L106.4 294.6L121.92 294.6L125.16 303.11L139.29 299.06L127.65 255.63L121.11 207.75L97.86 198.86Z" />
				<path id="Path" class="shp33" d="M72.74 202.7L79.54 222.06L74.49 222.06L83.9 262.17" />
				<path id="Path" class="shp33" d="M108.67 203.05L103.09 220.83L109.72 221.36L103.61 261.12" />
				<path id="Path" class="shp33" d="M78.85 295.48L64.9 258.85L68.56 231.47" />
				<path id="Path" class="shp33" d="M57.05 208.63C57.05 208.63 65.42 208.1 68.73 230.25" />
				<path id="Path" class="shp33" d="M121.89 294.28L118.09 233.74" />
				<path id="Path" class="shp33" d="M119.36 207.29C119.36 207.29 117.39 213.51 118.09 225.89" />
				<path id="Path" class="shp21" d="M76.23 296.7L77.98 298.61L82.16 301.23C82.16 301.23 79.89 314.83 74.84 316.58L71.17 303.67L70.13 301.41L76.23 296.7Z" />
				<path id="Oval" class="shp34" d="M80.03 266.09C80.83 266.09 81.47 265.45 81.47 264.65C81.47 263.86 80.83 263.21 80.03 263.21C79.24 263.21 78.59 263.86 78.59 264.65C78.59 265.45 79.24 266.09 80.03 266.09Z" />
				<path id="Path" class="shp34" d="M81.86 275.12C81.86 274.32 81.22 273.68 80.42 273.68C79.63 273.68 78.98 274.32 78.98 275.12C78.98 275.91 79.63 276.56 80.42 276.56C81.22 276.56 81.86 275.91 81.86 275.12Z" />
				<path id="Oval" class="shp34" d="M81.27 286.89C82.07 286.89 82.71 286.25 82.71 285.45C82.71 284.66 82.07 284.01 81.27 284.01C80.48 284.01 79.84 284.66 79.84 285.45C79.84 286.25 80.48 286.89 81.27 286.89Z" />
			</g>
			<g id="Group">
				<path id="Path" class="shp22" d="M308.31 282.81C308.31 282.81 312.74 285.21 313.67 285.95C314.59 286.69 319.58 293.89 319.58 293.89C319.58 293.89 315.51 292.97 315.14 291.68L313.3 290.94L317.17 294.82L322.9 297.59C322.9 297.59 321.98 298.88 321.24 299.06C320.5 299.25 319.21 299.06 315.7 300.73C312.19 302.39 303.88 288.54 303.88 288.54L308.31 282.81Z" />
				<g id="Group">
					<path id="Path" class="shp22" d="M279.78 377.64C279.78 377.64 281.16 431.66 283.1 432.77C285.04 433.88 299.44 440.25 301.11 441.64C302.77 443.02 300 444.96 295.57 444.96C291.13 444.96 274.24 444.96 274.24 444.96C274.24 444.96 274.51 441.91 275.34 433.6C276.17 425.29 264.54 397.04 266.48 356.04L277.56 357.7L279.78 377.64Z" />
					<path id="Rectangle" class="shp35" d="M273.31 444.59L302.03 444.59L302.03 446.9L273.31 446.9L273.31 444.59Z" />
					<path id="Path" class="shp35" d="M293.72 445.52L295.1 437.85L287.99 434.62L284.21 445.88L293.72 445.52Z" />
					<path id="Path" class="shp22" d="M251.24 371.27C251.24 371.27 243.58 431.66 245.52 432.77C247.46 433.88 261.86 440.25 263.52 441.64C265.19 443.02 262.42 444.96 257.98 444.96C253.55 444.96 236.65 444.96 236.65 444.96C236.65 444.96 236.93 441.91 237.76 433.6C238.59 425.29 233.79 397.04 235.73 356.04L239.98 357.7L251.24 371.27Z" />
					<path id="Rectangle" class="shp35" d="M235.73 444.59L264.45 444.59L264.45 446.9L235.73 446.9L235.73 444.59Z" />
					<path id="Path" class="shp35" d="M256.14 445.52L257.52 437.85L250.41 434.62L246.63 445.88L256.14 445.52Z" />
					<path id="Path" class="shp36" d="M276.73 300.91L286.98 416.15C286.98 416.15 281.44 419.48 273.68 418.92L268.7 357.42L267.59 419.48C267.59 419.48 245.15 423.63 227.42 416.43L234.07 303.13L276.73 300.91Z" />
					<path id="Path" class="shp22" d="M257.58 206.57C257.58 206.57 258.44 216.25 258.96 216.77C259.48 217.28 261.38 218.67 261.38 218.67C261.38 218.67 253.26 222.12 246.17 219.53C246.17 219.53 249.11 216.94 248.94 214.17C248.76 211.41 248.94 201.56 248.94 201.56L257.58 206.57Z" />
					<path id="Path" class="shp22" d="M241.13 193.65C240.07 190.9 239.72 187.89 240.4 184.69C242.53 174.66 253.35 175.31 261.1 178.05C264.46 179.24 267.02 182.45 267.44 185.99C267.62 187.55 267.45 189.13 267.51 190.7C267.64 193.76 270.11 195.12 270.43 195.62C270.68 196.01 269.42 197.6 269.15 197.65C268.96 197.68 268.77 198.55 268.77 199C268.8 200.92 268.67 202.88 268.01 204.69C265.65 211.1 259.76 208.48 254.84 205.81C249.31 202.79 243.39 199.55 241.13 193.65Z" />
					<path id="Path" class="shp31" d="M266.14 187.12C265.13 187.02 264.08 187.35 263.29 188C263.13 188.14 262.97 188.3 262.9 188.5C262.83 188.71 262.88 188.96 263.06 189.08C263.44 188.72 264.01 188.66 264.53 188.63C264.87 188.6 265.2 188.58 265.54 188.56C265.89 188.54 266.26 188.5 266.56 188.3C266.85 188.1 267 187.66 266.78 187.38C266.64 187.19 266.38 187.14 266.14 187.12Z" />
					<path id="Oval" class="shp7" d="M265.5 193.68C266.03 193.62 266.35 192.69 266.22 191.62C266.1 190.54 265.56 189.72 265.03 189.78C264.51 189.85 264.18 190.77 264.31 191.85C264.44 192.92 264.97 193.74 265.5 193.68Z" />
					<path id="Path" class="shp10" d="M268.27 203.77C268.6 202.57 268.73 201.33 268.76 200.08C267.99 200.27 266.25 200.53 263.43 200.05C263.43 200.05 265.4 203.34 268.27 203.77Z" />
					<path id="Path" class="shp31" d="M241.08 180.33C242.26 178.77 243.77 177.48 245.6 176.69C250.86 174.43 257.23 175.87 262.3 177.97C262.7 178.14 263.1 178.31 263.41 178.61C264.09 179.31 264.03 180.43 263.87 181.39C262.2 191.26 255.43 199.79 247 205.17C247.87 204.54 247.66 203.1 246.92 202.31C246.18 201.52 245.11 201.17 244.15 200.67C240.26 198.65 238.32 193.87 238.2 189.64C238.11 186.4 239.11 182.97 241.08 180.33Z" />
					<path id="Path" class="shp28" d="M254.78 196.04C254.88 196.35 255.05 196.63 255.25 196.88C255.78 197.54 256.62 198.07 257.43 197.84C257.94 197.69 258.33 197.26 258.55 196.78C258.78 196.3 258.85 195.76 258.9 195.23C258.91 195.1 258.93 194.96 258.88 194.84C258.84 194.72 258.75 194.63 258.66 194.55C258.24 194.12 257.77 193.7 257.19 193.54C256.51 193.34 255.72 193.55 255.23 194.06C254.74 194.57 254.55 195.37 254.78 196.04Z" />
					<path id="Path" class="shp28" d="M266.54 195.22C267.03 195.7 266.79 196.42 266.28 196.88C264.97 198.05 262.28 198.01 261.58 196.48C261.38 196.06 261.41 195.53 261.71 195.12C262.36 194.2 263.72 194.43 264.69 194.55C265.3 194.63 266.12 194.81 266.54 195.22Z" />
					<g id="Group">
						<path id="Path" class="shp15" d="M263.45 186.23C263.59 185.62 263.21 185.01 262.6 184.87C261.99 184.73 261.38 185.12 261.24 185.73C261.1 186.34 261.48 186.94 262.09 187.09C262.7 187.23 263.31 186.84 263.45 186.23Z" />
						<path id="Rectangle" class="shp15" d="M257.32 184.59L262 185.66L261.9 186.06L257.23 184.99L257.32 184.59Z" />
					</g>
					<g id="Group">
						<path id="Path" class="shp15" d="M261.58 190.84C261.82 190.27 261.55 189.6 260.97 189.36C260.39 189.12 259.73 189.39 259.48 189.96C259.24 190.54 259.51 191.21 260.09 191.45C260.67 191.69 261.33 191.42 261.58 190.84Z" />
						<path id="Rectangle" class="shp15" d="M255.83 188.15L260.25 190.01L260.09 190.39L255.67 188.53L255.83 188.15Z" />
					</g>
					<path id="Path" class="shp23" d="M261.22 218.08C261.22 218.08 271.47 217.8 275.07 220.57C278.67 223.34 286.61 255.85 286.61 255.85C286.61 255.85 309.69 273.35 309.69 277.22C309.69 281.1 310.62 283.87 310.62 283.87L304.71 290.52C304.71 290.52 298.89 290.15 294.18 289.6C289.47 289.04 278.11 273.58 278.11 273.58C278.11 273.58 279.22 301.46 278.11 303.96C277.01 306.45 243.21 309.5 232.96 304.23L235.18 278.75C235.18 278.75 221.32 267.67 221.88 259.36C222.43 251.05 232.96 222.24 236.01 220.85C239.05 219.47 247.37 218.36 247.37 218.36C247.37 218.36 254.57 220.57 261.22 218.08Z" />
					<path id="Path" class="shp37" d="M278.11 273.58C278.11 273.58 267.68 262.87 266.2 240.52" />
					<path id="Path" class="shp37" d="M235.18 278.75C235.18 278.75 237.11 248.41 237.25 243.29" />
					<path id="Path" class="shp28" d="M265.13 208.22C263.11 207.96 255.64 205.4 254.71 198.9C254.71 198.9 252.49 202.91 252.56 203.47C252.63 204.02 253.32 209.63 253.32 209.63L253.81 205.75C253.81 205.75 255.53 208.1 257.88 209.73C257.78 208.7 257.69 207.8 257.64 207.22C260.31 208.45 263.02 209.2 265.13 208.22Z" />
					<path id="Path" class="shp31" d="M225.25 215.55C224.15 217.26 223.35 219.16 222.9 221.14C222.52 222.81 222.4 224.55 222.74 226.22C223.54 230.14 226.92 233.19 230.72 234.44C234.53 235.7 238.68 235.38 242.58 234.47C246.86 233.48 251.21 231.6 253.68 227.97C256.59 223.68 256.21 218.02 255.46 212.89C254.7 207.76 253.72 202.33 255.71 197.54C252.96 197.06 250.52 195.3 248.92 193.01C247.33 190.72 246.54 187.92 246.4 185.13C246.27 182.61 246.63 180.01 245.93 177.58C245.86 177.34 245.77 177.09 245.56 176.98C245.27 176.82 244.92 177 244.64 177.17C239.42 180.51 235.86 186.31 235.25 192.48C234.89 196.09 235.48 199.85 234.33 203.29C232.7 208.14 228.02 211.25 225.25 215.55Z" />
					<path id="Path" class="shp38" d="M246.53 176.62C241.52 178.59 236.07 183.22 234.49 188.37C233.32 192.22 233.46 196.36 232.43 200.25C231.77 202.78 230.6 205.19 229.03 207.28C226.94 210.05 224.18 212.24 221.99 214.93C219.8 217.61 218.16 221.11 218.93 224.49C219.46 226.86 221.16 228.87 223.27 230.08C225.37 231.29 227.85 231.75 230.27 231.71" />
				</g>
			</g>
		</g>
		<path id="Rectangle" class="shp39" d="M320.6 0L321.4 0L321.4 80.7L320.6 80.7L320.6 0Z" />
		<g id="Group">
			<g id="Group">
				<path id="Path" class="shp40" d="M378.74 110.77L263.36 110.77C262.77 110.77 262.28 110.29 262.28 109.69L262.28 37.85C262.28 37.25 262.77 36.77 263.36 36.77L378.74 36.77C379.33 36.77 379.82 37.25 379.82 37.85L379.82 109.69C379.82 110.29 379.33 110.77 378.74 110.77Z" />
				<path id="Shape" fill-rule="evenodd" class="shp41" d="M261.96 80.74L261.96 37.96C261.96 37.71 262.02 37.47 262.13 37.26C262.38 36.78 262.89 36.45 263.48 36.45L378.63 36.45C379.46 36.45 380.14 37.13 380.14 37.96L380.14 109.58C380.14 110.41 379.46 111.09 378.63 111.09L263.48 111.09C262.64 111.09 261.96 110.41 261.96 109.58L261.96 88.23L262.61 89.19L262.61 109.58C262.61 110.06 263 110.45 263.48 110.45L378.63 110.45C379.1 110.45 379.49 110.06 379.49 109.58L379.49 37.96C379.49 37.48 379.1 37.09 378.63 37.09L263.48 37.09C263 37.09 262.61 37.48 262.61 37.96L262.61 81.69L261.96 80.74ZM261.96 85.01L261.96 88.23L262.61 89.19L262.61 85.96L261.96 85.01Z" />
			</g>
			<path id="Path" class="shp10" d="M376.15 108.88L266.87 108.88C265.73 108.88 264.8 107.96 264.8 106.81L264.8 44.4L378.22 44.4L378.22 106.81C378.22 107.96 377.29 108.88 376.15 108.88Z" />
			<g id="Group 4">
				<g id="Group 26" style="opacity: 0.51">
					<path id="Rectangle Copy 6" class="shp42" d="M272.12 62.32L310.04 62.32C310.84 62.32 311.48 62.96 311.48 63.76L311.48 65.44C311.48 66.24 310.84 66.88 310.04 66.88L272.12 66.88C271.32 66.88 270.68 66.24 270.68 65.44L270.68 63.76C270.68 62.96 271.32 62.32 272.12 62.32Z" />
					<path id="Rectangle Copy 7" class="shp42" d="M272.12 71.2L310.04 71.2C310.84 71.2 311.48 71.84 311.48 72.64L311.48 74.32C311.48 75.12 310.84 75.76 310.04 75.76L272.12 75.76C271.32 75.76 270.68 75.12 270.68 74.32L270.68 72.64C270.68 71.84 271.32 71.2 272.12 71.2Z" />
					<path id="Rectangle Copy 9" class="shp42" d="M272.12 80.08L310.04 80.08C310.84 80.08 311.48 80.72 311.48 81.52L311.48 83.2C311.48 84 310.84 84.64 310.04 84.64L272.12 84.64C271.32 84.64 270.68 84 270.68 83.2L270.68 81.52C270.68 80.72 271.32 80.08 272.12 80.08Z" />
					<path id="Rectangle Copy 8" class="shp42" d="M272.12 88.96L310.04 88.96C310.84 88.96 311.48 89.6 311.48 90.4L311.48 92.08C311.48 92.88 310.84 93.52 310.04 93.52L272.12 93.52C271.32 93.52 270.68 92.88 270.68 92.08L270.68 90.4C270.68 89.6 271.32 88.96 272.12 88.96Z" />
					<path id="Rectangle Copy 11" class="shp42" d="M272.12 97.84L310.04 97.84C310.84 97.84 311.48 98.48 311.48 99.28L311.48 100.96C311.48 101.76 310.84 102.4 310.04 102.4L272.12 102.4C271.32 102.4 270.68 101.76 270.68 100.96L270.68 99.28C270.68 98.48 271.32 97.84 272.12 97.84Z" />
				</g>
				<g id="Group 26 Copy 2" style="opacity: 0.51">
					<path id="Rectangle Copy 6" class="shp42" d="M321.56 62.32L368.84 62.32C369.64 62.32 370.28 62.96 370.28 63.76L370.28 65.44C370.28 66.24 369.64 66.88 368.84 66.88L321.56 66.88C320.76 66.88 320.12 66.24 320.12 65.44L320.12 63.76C320.12 62.96 320.76 62.32 321.56 62.32Z" />
					<path id="Rectangle Copy 7" class="shp42" d="M321.56 71.2L368.84 71.2C369.64 71.2 370.28 71.84 370.28 72.64L370.28 74.32C370.28 75.12 369.64 75.76 368.84 75.76L321.56 75.76C320.76 75.76 320.12 75.12 320.12 74.32L320.12 72.64C320.12 71.84 320.76 71.2 321.56 71.2Z" />
					<path id="Rectangle Copy 9" class="shp42" d="M321.56 80.08L368.84 80.08C369.64 80.08 370.28 80.72 370.28 81.52L370.28 83.2C370.28 84 369.64 84.64 368.84 84.64L321.56 84.64C320.76 84.64 320.12 84 320.12 83.2L320.12 81.52C320.12 80.72 320.76 80.08 321.56 80.08Z" />
					<path id="Rectangle Copy 8" class="shp42" d="M321.56 88.96L368.84 88.96C369.64 88.96 370.28 89.6 370.28 90.4L370.28 92.08C370.28 92.88 369.64 93.52 368.84 93.52L321.56 93.52C320.76 93.52 320.12 92.88 320.12 92.08L320.12 90.4C320.12 89.6 320.76 88.96 321.56 88.96Z" />
					<path id="Rectangle Copy 11" class="shp42" d="M321.56 97.84L368.84 97.84C369.64 97.84 370.28 98.48 370.28 99.28L370.28 100.96C370.28 101.76 369.64 102.4 368.84 102.4L321.56 102.4C320.76 102.4 320.12 101.76 320.12 100.96L320.12 99.28C320.12 98.48 320.76 97.84 321.56 97.84Z" />
				</g>
				<path id="Rectangle" class="shp43" d="M272.12 51.76L287.96 51.76C288.76 51.76 289.4 52.4 289.4 53.2L289.4 54.88C289.4 55.68 288.76 56.32 287.96 56.32L272.12 56.32C271.32 56.32 270.68 55.68 270.68 54.88L270.68 53.2C270.68 52.4 271.32 51.76 272.12 51.76Z" />
				<path id="Rectangle Copy 12" class="shp43" d="M298.28 51.76L326.12 51.76C326.92 51.76 327.56 52.4 327.56 53.2L327.56 54.88C327.56 55.68 326.92 56.32 326.12 56.32L298.28 56.32C297.48 56.32 296.84 55.68 296.84 54.88L296.84 53.2C296.84 52.4 297.48 51.76 298.28 51.76Z" />
				<path id="Rectangle Copy 13" class="shp43" d="M336.44 51.76L368.84 51.76C369.64 51.76 370.28 52.4 370.28 53.2L370.28 54.88C370.28 55.68 369.64 56.32 368.84 56.32L336.44 56.32C335.64 56.32 335 55.68 335 54.88L335 53.2C335 52.4 335.64 51.76 336.44 51.76Z" />
			</g>
			<g id="CloudShow">
				<path id="Path" class="shp23" d="M309.91 60.67C312.62 59.33 315.83 59.04 318.74 59.85C320.41 60.32 321.98 61.14 323.32 62.24C324.37 63.11 325.27 64.15 326 65.3C327.64 64.77 329.44 64.75 331.09 65.23C332.58 65.66 333.94 66.49 335 67.62C335.85 68.51 336.5 69.58 336.92 70.73C338.14 71.08 339.28 71.7 340.23 72.55C341.91 74.04 342.95 76.24 343.01 78.5C343.07 80.12 342.64 81.76 341.79 83.15C340.58 85.16 338.48 86.62 336.16 87.02C335.25 87.2 334.31 87.14 333.39 87.15C330.67 87.15 327.96 87.15 325.24 87.15C329.82 84.5 334.39 81.85 338.96 79.19C333.61 76.1 328.26 72.99 322.9 69.88C320.35 68.4 317.8 66.93 315.25 65.45C315.25 66.62 315.25 67.79 315.25 68.97C321.12 72.37 326.99 75.78 332.87 79.18C332.87 79.19 332.87 79.2 332.87 79.21C327.23 82.48 321.59 85.75 315.95 89.01C313.7 90.32 311.44 91.63 309.19 92.94C309.19 88.35 309.19 83.77 309.19 79.18C308.03 79.18 306.87 79.18 305.72 79.18C305.72 81.8 305.71 84.42 305.72 87.03C304.12 86.76 302.62 86.01 301.44 84.9C300.4 83.93 299.62 82.68 299.19 81.32C298.62 79.53 298.68 77.55 299.35 75.79C300.02 74.04 301.3 72.52 302.92 71.58C302.97 69.79 303.4 68.02 304.19 66.42C305.39 63.94 307.44 61.88 309.91 60.67Z" />
			</g>
			<g id="Group">
				<path id="Path" class="shp10" d="M272.35 40.92C272.35 41.37 271.98 41.74 271.52 41.74C271.06 41.74 270.68 41.37 270.68 40.92C270.68 40.47 271.06 40.11 271.52 40.11C271.98 40.11 272.35 40.47 272.35 40.92Z" />
				<path id="Path" class="shp44" d="M275.61 40.92C275.61 41.37 275.24 41.74 274.78 41.74C274.32 41.74 273.94 41.37 273.94 40.92C273.94 40.47 274.32 40.11 274.78 40.11C275.24 40.11 275.61 40.47 275.61 40.92Z" />
				<path id="Path" class="shp45" d="M278.87 40.92C278.87 41.37 278.5 41.74 278.04 41.74C277.58 41.74 277.2 41.37 277.2 40.92C277.2 40.47 277.58 40.11 278.04 40.11C278.5 40.11 278.87 40.47 278.87 40.92Z" />
			</g>
		</g>
		<path id="Rectangle" class="shp46" d="M443.6 22L444.4 22L444.4 102.7L443.6 102.7L443.6 22Z" />
		<g id="Group">
			<g id="Group">
				<path id="Path" class="shp40" d="M512.36 153.83L375.46 153.83C374.76 153.83 374.18 153.25 374.18 152.55L374.18 67.31C374.18 66.6 374.76 66.03 375.46 66.03L512.36 66.03C513.06 66.03 513.63 66.6 513.63 67.31L513.63 152.55C513.63 153.25 513.06 153.83 512.36 153.83Z" />
				<path id="Shape" fill-rule="evenodd" class="shp41" d="M373.8 118.2L373.8 127.09L374.57 128.22L374.57 128.22L374.57 128.22L374.57 128.22L374.57 128.22L374.57 124.39L373.8 123.26L373.8 127.09L374.57 128.22L374.57 152.41C374.57 152.98 375.03 153.44 375.6 153.44L512.22 153.44C512.79 153.44 513.25 152.98 513.25 152.41L513.25 67.44C513.25 66.87 512.79 66.41 512.22 66.41L375.6 66.41C375.03 66.41 374.57 66.87 374.57 67.44L374.57 119.33L373.8 118.2ZM374.57 119.33L374.57 119.33L374.57 124.39L374.57 124.39L374.57 119.33ZM514.02 67.44L514.02 152.41C514.02 153.4 513.21 154.21 512.22 154.21L375.6 154.21C374.6 154.21 373.8 153.4 373.8 152.41L373.8 67.44C373.8 67.14 373.87 66.86 374 66.61C374.3 66.04 374.9 65.64 375.6 65.64L512.22 65.64C513.21 65.64 514.02 66.45 514.02 67.44Z" />
			</g>
			<path id="Path" class="shp10" d="M508.72 152.11L379.05 152.11C377.7 152.11 376.6 151.01 376.6 149.65L376.6 75.6L511.17 75.6L511.17 149.65C511.17 151.01 510.07 152.11 508.72 152.11Z" />
			<g id="Group 5">
				<path id="Rectangle" class="shp43" d="M386.76 82.64L458.04 82.64C458.84 82.64 459.48 83.28 459.48 84.08L459.48 85.76C459.48 86.56 458.84 87.2 458.04 87.2L386.76 87.2C385.96 87.2 385.32 86.56 385.32 85.76L385.32 84.08C385.32 83.28 385.96 82.64 386.76 82.64Z" />
				<g id="Group 26" style="opacity: 0.51">
					<path id="Rectangle Copy 6" class="shp42" d="M386.76 93.2L424.68 93.2C425.48 93.2 426.12 93.84 426.12 94.64L426.12 96.32C426.12 97.12 425.48 97.76 424.68 97.76L386.76 97.76C385.96 97.76 385.32 97.12 385.32 96.32L385.32 94.64C385.32 93.84 385.96 93.2 386.76 93.2Z" />
					<path id="Rectangle Copy 7" class="shp42" d="M386.76 102.08L424.68 102.08C425.48 102.08 426.12 102.72 426.12 103.52L426.12 105.2C426.12 106 425.48 106.64 424.68 106.64L386.76 106.64C385.96 106.64 385.32 106 385.32 105.2L385.32 103.52C385.32 102.72 385.96 102.08 386.76 102.08Z" />
					<path id="Rectangle Copy 9" class="shp42" d="M386.76 110.96L424.68 110.96C425.48 110.96 426.12 111.6 426.12 112.4L426.12 114.08C426.12 114.88 425.48 115.52 424.68 115.52L386.76 115.52C385.96 115.52 385.32 114.88 385.32 114.08L385.32 112.4C385.32 111.6 385.96 110.96 386.76 110.96Z" />
					<path id="Rectangle Copy 8" class="shp42" d="M386.76 119.84L424.68 119.84C425.48 119.84 426.12 120.48 426.12 121.28L426.12 122.96C426.12 123.76 425.48 124.4 424.68 124.4L386.76 124.4C385.96 124.4 385.32 123.76 385.32 122.96L385.32 121.28C385.32 120.48 385.96 119.84 386.76 119.84Z" />
					<path id="Rectangle Copy 11" class="shp42" d="M386.76 128.72L424.68 128.72C425.48 128.72 426.12 129.36 426.12 130.16L426.12 131.84C426.12 132.64 425.48 133.28 424.68 133.28L386.76 133.28C385.96 133.28 385.32 132.64 385.32 131.84L385.32 130.16C385.32 129.36 385.96 128.72 386.76 128.72Z" />
					<path id="Rectangle Copy 10" class="shp42" d="M386.76 137.6L424.68 137.6C425.48 137.6 426.12 138.24 426.12 139.04L426.12 140.72C426.12 141.52 425.48 142.16 424.68 142.16L386.76 142.16C385.96 142.16 385.32 141.52 385.32 140.72L385.32 139.04C385.32 138.24 385.96 137.6 386.76 137.6Z" />
				</g>
				<g id="Group 26 Copy" style="opacity: 0.51">
					<path id="Rectangle Copy 6" class="shp42" d="M439.56 93.2L501.72 93.2C502.52 93.2 503.16 93.84 503.16 94.64L503.16 96.32C503.16 97.12 502.52 97.76 501.72 97.76L439.56 97.76C438.76 97.76 438.12 97.12 438.12 96.32L438.12 94.64C438.12 93.84 438.76 93.2 439.56 93.2Z" />
					<path id="Rectangle Copy 7" class="shp42" d="M439.56 102.08L501.72 102.08C502.52 102.08 503.16 102.72 503.16 103.52L503.16 105.2C503.16 106 502.52 106.64 501.72 106.64L439.56 106.64C438.76 106.64 438.12 106 438.12 105.2L438.12 103.52C438.12 102.72 438.76 102.08 439.56 102.08Z" />
					<path id="Rectangle Copy 9" class="shp42" d="M439.56 110.96L501.72 110.96C502.52 110.96 503.16 111.6 503.16 112.4L503.16 114.08C503.16 114.88 502.52 115.52 501.72 115.52L439.56 115.52C438.76 115.52 438.12 114.88 438.12 114.08L438.12 112.4C438.12 111.6 438.76 110.96 439.56 110.96Z" />
					<path id="Rectangle Copy 8" class="shp42" d="M439.56 119.84L501.72 119.84C502.52 119.84 503.16 120.48 503.16 121.28L503.16 122.96C503.16 123.76 502.52 124.4 501.72 124.4L439.56 124.4C438.76 124.4 438.12 123.76 438.12 122.96L438.12 121.28C438.12 120.48 438.76 119.84 439.56 119.84Z" />
					<path id="Rectangle Copy 11" class="shp42" d="M439.56 128.72L501.72 128.72C502.52 128.72 503.16 129.36 503.16 130.16L503.16 131.84C503.16 132.64 502.52 133.28 501.72 133.28L439.56 133.28C438.76 133.28 438.12 132.64 438.12 131.84L438.12 130.16C438.12 129.36 438.76 128.72 439.56 128.72Z" />
					<path id="Rectangle Copy 10" class="shp42" d="M439.56 137.6L501.72 137.6C502.52 137.6 503.16 138.24 503.16 139.04L503.16 140.72C503.16 141.52 502.52 142.16 501.72 142.16L439.56 142.16C438.76 142.16 438.12 141.52 438.12 140.72L438.12 139.04C438.12 138.24 438.76 137.6 439.56 137.6Z" />
				</g>
			</g>
			<g id="CloudShow">
				<path id="Path" class="shp23" d="M430.93 95.13C434.18 93.51 438.03 93.17 441.52 94.14C443.53 94.7 445.41 95.69 447.02 97.01C448.28 98.05 449.36 99.3 450.23 100.68C452.2 100.04 454.37 100.02 456.35 100.6C458.13 101.11 459.77 102.11 461.04 103.46C462.06 104.53 462.84 105.81 463.34 107.2C464.8 107.62 466.18 108.36 467.31 109.38C469.33 111.17 470.57 113.81 470.65 116.52C470.72 118.47 470.21 120.44 469.19 122.1C467.73 124.52 465.21 126.26 462.44 126.74C461.34 126.96 460.22 126.89 459.1 126.9C455.85 126.9 452.59 126.9 449.33 126.9C454.82 123.72 460.31 120.53 465.79 117.35C459.37 113.63 452.95 109.9 446.52 106.18C443.46 104.4 440.4 102.64 437.34 100.86C437.34 102.26 437.34 103.67 437.34 105.08C444.39 109.17 451.43 113.25 458.48 117.34C458.48 117.35 458.48 117.36 458.48 117.37C451.71 121.29 444.95 125.21 438.18 129.14C435.48 130.71 432.77 132.27 430.06 133.85C430.06 128.35 430.06 122.84 430.06 117.34C428.67 117.34 427.29 117.34 425.9 117.34C425.9 120.48 425.9 123.62 425.9 126.76C423.99 126.43 422.18 125.53 420.77 124.2C419.52 123.03 418.58 121.54 418.07 119.91C417.38 117.76 417.45 115.38 418.26 113.27C419.06 111.16 420.6 109.35 422.55 108.21C422.61 106.07 423.12 103.94 424.06 102.02C425.51 99.05 427.97 96.58 430.93 95.13Z" />
			</g>
			<g id="Group">
				<path id="Path" class="shp10" d="M386.13 70.95C386.13 71.49 385.69 71.92 385.14 71.92C384.59 71.92 384.15 71.49 384.15 70.95C384.15 70.42 384.59 69.99 385.14 69.99C385.69 69.99 386.13 70.42 386.13 70.95Z" />
				<path id="Path" class="shp44" d="M390 70.95C390 71.49 389.55 71.92 389.01 71.92C388.46 71.92 388.02 71.49 388.02 70.95C388.02 70.42 388.46 69.99 389.01 69.99C389.55 69.99 390 70.42 390 70.95Z" />
				<path id="Path" class="shp45" d="M393.87 70.95C393.87 71.49 393.42 71.92 392.87 71.92C392.33 71.92 391.88 71.49 391.88 70.95C391.88 70.42 392.33 69.99 392.87 69.99C393.42 69.99 393.87 70.42 393.87 70.95Z" />
			</g>
		</g>
		<path id="Rectangle" class="shp47" d="M181 24L181.8 24L181.8 104.7L181 104.7L181 24Z" />
		<g id="Group Copy">
			<g id="Group">
				<path id="Path" class="shp40" d="M236.05 139.78L126.53 139.78C125.96 139.78 125.51 139.32 125.51 138.76L125.51 70.56C125.51 70 125.96 69.54 126.53 69.54L236.05 69.54C236.61 69.54 237.07 70 237.07 70.56L237.07 138.76C237.07 139.32 236.61 139.78 236.05 139.78Z" />
				<path id="Shape" fill-rule="evenodd" class="shp41" d="M125.2 111.28L125.2 118.39L125.81 119.29L125.81 119.3L125.81 119.3L125.81 119.3L125.81 119.29L125.81 116.23L125.2 115.33L125.2 118.39L125.81 119.3L125.81 138.65C125.81 139.1 126.18 139.47 126.64 139.47L235.94 139.47C236.39 139.47 236.76 139.1 236.76 138.65L236.76 70.67C236.76 70.22 236.39 69.85 235.94 69.85L126.64 69.85C126.18 69.85 125.81 70.22 125.81 70.67L125.81 112.18L125.2 111.28ZM125.81 112.18L125.81 112.18L125.81 116.23L125.81 116.23L125.81 112.18ZM237.38 70.67L237.38 138.65C237.38 139.44 236.73 140.09 235.94 140.09L126.64 140.09C125.84 140.09 125.2 139.44 125.2 138.65L125.2 70.67C125.2 70.43 125.26 70.21 125.36 70.01C125.6 69.55 126.08 69.23 126.64 69.23L235.94 69.23C236.73 69.23 237.38 69.88 237.38 70.67Z" />
			</g>
			<path id="Path" class="shp10" d="M233.4 138.02L129.67 138.02C128.58 138.02 127.71 137.14 127.71 136.05L127.71 76.81L235.36 76.81L235.36 136.05C235.36 137.14 234.49 138.02 233.4 138.02Z" />
			<g id="Group 3">
				<path id="Rectangle" class="shp43" d="M135.57 82.83L192.59 82.83C193.23 82.83 193.74 83.35 193.74 83.98L193.74 85.33C193.74 85.96 193.23 86.48 192.59 86.48L135.57 86.48C134.93 86.48 134.42 85.96 134.42 85.33L134.42 83.98C134.42 83.35 134.93 82.83 135.57 82.83Z" />
				<g id="Group 26" style="opacity: 0.51">
					<path id="Rectangle Copy 6" class="shp42" d="M135.57 91.28L165.9 91.28C166.54 91.28 167.06 91.79 167.06 92.43L167.06 93.78C167.06 94.41 166.54 94.93 165.9 94.93L135.57 94.93C134.93 94.93 134.42 94.41 134.42 93.78L134.42 92.43C134.42 91.79 134.93 91.28 135.57 91.28Z" />
					<path id="Rectangle Copy 7" class="shp42" d="M135.57 98.38L165.9 98.38C166.54 98.38 167.06 98.9 167.06 99.54L167.06 100.88C167.06 101.52 166.54 102.03 165.9 102.03L135.57 102.03C134.93 102.03 134.42 101.52 134.42 100.88L134.42 99.54C134.42 98.9 134.93 98.38 135.57 98.38Z" />
					<path id="Rectangle Copy 9" class="shp42" d="M135.57 105.49L165.9 105.49C166.54 105.49 167.06 106 167.06 106.64L167.06 107.98C167.06 108.62 166.54 109.14 165.9 109.14L135.57 109.14C134.93 109.14 134.42 108.62 134.42 107.98L134.42 106.64C134.42 106 134.93 105.49 135.57 105.49Z" />
					<path id="Rectangle Copy 8" class="shp42" d="M135.57 112.59L165.9 112.59C166.54 112.59 167.06 113.11 167.06 113.74L167.06 115.09C167.06 115.73 166.54 116.24 165.9 116.24L135.57 116.24C134.93 116.24 134.42 115.73 134.42 115.09L134.42 113.74C134.42 113.11 134.93 112.59 135.57 112.59Z" />
					<path id="Rectangle Copy 11" class="shp42" d="M135.57 119.7L165.9 119.7C166.54 119.7 167.06 120.21 167.06 120.85L167.06 122.19C167.06 122.83 166.54 123.34 165.9 123.34L135.57 123.34C134.93 123.34 134.42 122.83 134.42 122.19L134.42 120.85C134.42 120.21 134.93 119.7 135.57 119.7Z" />
					<path id="Rectangle Copy 10" class="shp42" d="M135.57 126.8L165.9 126.8C166.54 126.8 167.06 127.31 167.06 127.95L167.06 129.3C167.06 129.93 166.54 130.45 165.9 130.45L135.57 130.45C134.93 130.45 134.42 129.93 134.42 129.3L134.42 127.95C134.42 127.31 134.93 126.8 135.57 126.8Z" />
				</g>
				<g id="Group 26 Copy" style="opacity: 0.51">
					<path id="Rectangle Copy 6" class="shp42" d="M177.81 91.28L227.54 91.28C228.17 91.28 228.69 91.79 228.69 92.43L228.69 93.78C228.69 94.41 228.17 94.93 227.54 94.93L177.81 94.93C177.17 94.93 176.66 94.41 176.66 93.78L176.66 92.43C176.66 91.79 177.17 91.28 177.81 91.28Z" />
					<path id="Rectangle Copy 7" class="shp42" d="M177.81 98.38L227.54 98.38C228.17 98.38 228.69 98.9 228.69 99.54L228.69 100.88C228.69 101.52 228.17 102.03 227.54 102.03L177.81 102.03C177.17 102.03 176.66 101.52 176.66 100.88L176.66 99.54C176.66 98.9 177.17 98.38 177.81 98.38Z" />
					<path id="Rectangle Copy 9" class="shp42" d="M177.81 105.49L227.54 105.49C228.17 105.49 228.69 106 228.69 106.64L228.69 107.98C228.69 108.62 228.17 109.14 227.54 109.14L177.81 109.14C177.17 109.14 176.66 108.62 176.66 107.98L176.66 106.64C176.66 106 177.17 105.49 177.81 105.49Z" />
					<path id="Rectangle Copy 8" class="shp42" d="M177.81 112.59L227.54 112.59C228.17 112.59 228.69 113.11 228.69 113.74L228.69 115.09C228.69 115.73 228.17 116.24 227.54 116.24L177.81 116.24C177.17 116.24 176.66 115.73 176.66 115.09L176.66 113.74C176.66 113.11 177.17 112.59 177.81 112.59Z" />
					<path id="Rectangle Copy 11" class="shp42" d="M177.81 119.7L227.54 119.7C228.17 119.7 228.69 120.21 228.69 120.85L228.69 122.19C228.69 122.83 228.17 123.34 227.54 123.34L177.81 123.34C177.17 123.34 176.66 122.83 176.66 122.19L176.66 120.85C176.66 120.21 177.17 119.7 177.81 119.7Z" />
					<path id="Rectangle Copy 10" class="shp42" d="M177.81 126.8L227.54 126.8C228.17 126.8 228.69 127.31 228.69 127.95L228.69 129.3C228.69 129.93 228.17 130.45 227.54 130.45L177.81 130.45C177.17 130.45 176.66 129.93 176.66 129.3L176.66 127.95C176.66 127.31 177.17 126.8 177.81 126.8Z" />
				</g>
			</g>
			<g id="CloudShow">
				<path id="Path" class="shp23" d="M170.11 91.27C172.82 89.93 176.03 89.64 178.94 90.45C180.61 90.92 182.18 91.74 183.52 92.84C184.57 93.71 185.47 94.75 186.2 95.9C187.84 95.37 189.64 95.35 191.29 95.83C192.78 96.26 194.14 97.09 195.2 98.22C196.05 99.11 196.7 100.18 197.12 101.33C198.34 101.68 199.48 102.3 200.43 103.15C202.11 104.64 203.15 106.84 203.21 109.1C203.27 110.72 202.84 112.36 201.99 113.75C200.78 115.76 198.68 117.22 196.36 117.62C195.45 117.8 194.51 117.74 193.59 117.75C190.87 117.75 188.16 117.75 185.44 117.75C190.02 115.1 194.59 112.45 199.16 109.79C193.81 106.7 188.46 103.59 183.1 100.48C180.55 99 178 97.53 175.45 96.05C175.45 97.22 175.45 98.39 175.45 99.57C181.32 102.97 187.19 106.38 193.07 109.78C193.07 109.79 193.07 109.8 193.07 109.81C187.43 113.08 181.79 116.35 176.15 119.61C173.9 120.92 171.64 122.23 169.39 123.54C169.39 118.96 169.39 114.37 169.39 109.78C168.23 109.78 167.07 109.78 165.92 109.78C165.92 112.4 165.91 115.02 165.92 117.63C164.32 117.36 162.82 116.61 161.64 115.5C160.6 114.53 159.82 113.28 159.39 111.92C158.82 110.13 158.88 108.15 159.55 106.39C160.22 104.64 161.5 103.12 163.12 102.18C163.17 100.39 163.6 98.62 164.39 97.02C165.59 94.54 167.64 92.48 170.11 91.27Z" />
			</g>
			<g id="Group">
				<path id="Path" class="shp10" d="M135.06 73.48C135.06 73.91 134.71 74.25 134.27 74.25C133.83 74.25 133.48 73.91 133.48 73.48C133.48 73.05 133.83 72.71 134.27 72.71C134.71 72.71 135.06 73.05 135.06 73.48Z" />
				<path id="Path" class="shp44" d="M138.16 73.48C138.16 73.91 137.8 74.25 137.37 74.25C136.93 74.25 136.57 73.91 136.57 73.48C136.57 73.05 136.93 72.71 137.37 72.71C137.8 72.71 138.16 73.05 138.16 73.48Z" />
				<path id="Path" class="shp45" d="M141.25 73.48C141.25 73.91 140.9 74.25 140.46 74.25C140.02 74.25 139.67 73.91 139.67 73.48C139.67 73.05 140.02 72.71 140.46 72.71C140.9 72.71 141.25 73.05 141.25 73.48Z" />
			</g>
		</g>
	</g>
</svg>