<svg xmlns="http://www.w3.org/2000/svg" viewBox="0 0 24 24" width="24" height="24"><style>tspan { white-space:pre }.shp0 { display: none;fill: #000000 } .shp1 { fill: #ffffff } </style><g id="instagram-line"><path id="Path" class="shp0" d="M0 0L24 0L24 24L0 24L0 0Z" /><path id="Shape" fill-rule="evenodd" class="shp1" d="M15 12C15 13.66 13.66 15 12 15C10.34 15 9 13.66 9 12C9 10.34 10.34 9 12 9C13.66 9 15 10.34 15 12ZM12 7C9.24 7 7 9.24 7 12C7 14.76 9.24 17 12 17C14.76 17 17 14.76 17 12C17 9.24 14.76 7 12 7ZM17.25 5.5C16.56 5.5 16 6.06 16 6.75C16 7.44 16.56 8 17.25 8C17.94 8 18.5 7.44 18.5 6.75C18.5 6.06 17.94 5.5 17.25 5.5ZM16.03 4.06C16.81 4.09 17.34 4.2 17.83 4.39C18.24 4.54 18.6 4.78 18.91 5.09C19.22 5.4 19.46 5.76 19.61 6.17C19.8 6.66 19.9 7.19 19.94 7.97C19.99 9.12 20 9.53 20 12C20 14.54 19.99 14.92 19.94 16.03C19.91 16.81 19.8 17.34 19.61 17.83C19.44 18.26 19.24 18.57 18.91 18.91C18.57 19.24 18.26 19.44 17.83 19.61C17.34 19.8 16.81 19.9 16.03 19.94C14.88 19.99 14.47 20 12 20C9.46 20 9.07 19.99 7.97 19.94C7.19 19.91 6.66 19.8 6.17 19.61C5.74 19.44 5.43 19.24 5.09 18.91C4.76 18.57 4.56 18.26 4.39 17.83C4.2 17.34 4.09 16.81 4.06 16.03C4.01 14.88 4 14.47 4 12C4 9.46 4.01 9.07 4.06 7.97C4.09 7.19 4.2 6.66 4.39 6.17C4.54 5.76 4.78 5.4 5.09 5.09C5.43 4.76 5.74 4.56 6.17 4.39C6.66 4.2 7.19 4.09 7.97 4.06C9.12 4.01 9.53 4 12 4C14.54 4 14.92 4.01 16.03 4.06ZM7.88 2.06C6.81 2.11 6.09 2.28 5.45 2.52C4.78 2.78 4.18 3.17 3.68 3.68C3.17 4.18 2.78 4.78 2.52 5.45C2.28 6.09 2.11 6.81 2.06 7.88C2.01 8.94 2 9.28 2 12C2 14.72 2.01 15.06 2.06 16.12C2.11 17.19 2.28 17.91 2.52 18.55C2.78 19.22 3.17 19.82 3.68 20.32C4.18 20.83 4.78 21.22 5.45 21.47C6.09 21.72 6.81 21.89 7.88 21.94C8.94 21.99 9.28 22 12 22C14.72 22 15.06 21.99 16.12 21.94C17.19 21.89 17.91 21.72 18.55 21.47C19.22 21.22 19.82 20.83 20.32 20.32C20.83 19.82 21.22 19.22 21.47 18.55C21.72 17.91 21.89 17.19 21.94 16.12C21.99 15.06 22 14.72 22 12C22 9.28 21.99 8.94 21.94 7.88C21.89 6.81 21.72 6.09 21.47 5.45C21.22 4.78 20.83 4.18 20.32 3.68C19.77 3.12 19.21 2.78 18.55 2.52C17.91 2.28 17.19 2.11 16.12 2.06C15.06 2.01 14.72 2 12 2C9.28 2 8.94 2.01 7.88 2.06Z" /></g></svg>