<svg xmlns="http://www.w3.org/2000/svg" viewBox="0 0 24 25" width="24" height="25"><style>tspan { white-space:pre }.shp0 { display: none;fill: #000000 } .shp1 { fill: #ffffff } </style><g id="linkedin-box-line"><path id="Path" class="shp0" d="M0 1L24 1L24 25L0 25L0 1Z" /><path id="Shape" fill-rule="evenodd" class="shp1" d="M4 4L20 4C20.55 4 21 4.45 21 5L21 21C21 21.55 20.55 22 20 22L4 22C3.45 22 3 21.55 3 21L3 5C3 4.45 3.45 4 4 4ZM5 6L5 20L19 20L19 6L5 6ZM7.5 10C6.67 10 6 9.33 6 8.5C6 7.67 6.67 7 7.5 7C8.33 7 9 7.67 9 8.5C9 9.33 8.33 10 7.5 10ZM6.5 11L8.5 11L8.5 18.5L6.5 18.5L6.5 11ZM14 10.5C16.07 10.5 17.5 12.18 17.5 14.25L17.5 18.5L15.5 18.5L15.5 14.25C15.5 13.28 14.72 12.5 13.75 12.5C12.78 12.5 12 13.28 12 14.25L12 18.5L10 18.5L10 11L12 11L12 11.43C12.58 10.86 13.27 10.5 14 10.5Z" /></g></svg>