<svg xmlns="http://www.w3.org/2000/svg" viewBox="0 0 74 56" width="74" height="56"><style>tspan { white-space:pre }.shp0 { fill: #ffffff } </style><g id="Path 2"><path id="Path" class="shp0" d="M18.59 2.13C23.13 -0.12 28.5 -0.6 33.37 0.76C36.17 1.53 38.79 2.9 41.03 4.75C42.79 6.19 44.3 7.93 45.52 9.85C48.26 8.96 51.28 8.93 54.05 9.73C56.53 10.45 58.81 11.84 60.59 13.72C62.01 15.2 63.1 16.99 63.79 18.92C65.84 19.5 67.75 20.54 69.34 21.96C72.15 24.45 73.89 28.12 73.99 31.88C74.1 34.6 73.38 37.34 71.96 39.65C69.92 43.01 66.41 45.44 62.54 46.11C61.01 46.41 59.44 46.31 57.89 46.33C53.35 46.33 48.8 46.33 44.26 46.33C51.91 41.9 59.57 37.48 67.22 33.05C58.25 27.87 49.3 22.68 40.34 17.5C36.07 15.03 31.8 12.57 27.54 10.09C27.54 12.05 27.54 14.02 27.54 15.98C37.36 21.66 47.19 27.35 57.02 33.03C57.02 33.04 57.02 33.06 57.02 33.07C47.58 38.53 38.15 43.99 28.71 49.44C24.93 51.63 21.15 53.8 17.38 56C17.38 48.34 17.38 40.69 17.38 33.03C15.45 33.03 13.51 33.03 11.57 33.03C11.58 37.4 11.57 41.77 11.58 46.14C8.91 45.68 6.39 44.43 4.42 42.57C2.68 40.95 1.37 38.87 0.65 36.6C-0.3 33.61 -0.21 30.3 0.92 27.37C2.04 24.44 4.19 21.91 6.9 20.33C6.98 17.35 7.7 14.39 9.02 11.72C11.03 7.58 14.46 4.15 18.59 2.13Z" /></g></svg>