<svg xmlns="http://www.w3.org/2000/svg" viewBox="0 0 24 24" width="24" height="24"><style>tspan { white-space:pre }.shp0 { display: none;fill: #000000 } .shp1 { fill: #ffc600 } </style><g id="star"><path id="Path" class="shp0" d="M0 0L24 0L24 24L0 24L0 0Z" /><path id="Path" class="shp1" d="M12 17.75L6.71 20.53C6.22 20.79 5.9 20.55 6 20.01L7.01 14.12L7.01 14.12L2.73 9.95C2.33 9.57 2.46 9.19 3 9.11L8.91 8.25L8.91 8.25L11.56 2.9C11.8 2.4 12.2 2.4 12.44 2.9L15.09 8.25L15.09 8.25L21 9.11C21.54 9.19 21.67 9.57 21.27 9.95L16.99 14.12L16.99 14.12L18 20.01C18.1 20.55 17.78 20.79 17.29 20.53L12 17.75L12 17.75Z" /></g></svg>