<svg xmlns="http://www.w3.org/2000/svg" viewBox="0 0 32 32" width="32" height="32"><style>tspan { white-space:pre }.shp0 { fill: none;stroke: #0460ba;stroke-linecap:round;stroke-linejoin:round;stroke-width: 1.95 } .shp1 { fill: none;stroke: #92bae1;stroke-linecap:round;stroke-linejoin:round;stroke-width: 1.95 } .shp2 { display: none;fill: #000000 } </style><g id="thunder-lightning-fast"><path id="Path" class="shp0" d="M21.27 7.33L21.27 13.4L26.45 13.4C26.76 13.39 27.05 13.56 27.2 13.83C27.34 14.1 27.33 14.43 27.16 14.68L20.57 24.33C20.36 24.63 19.98 24.77 19.63 24.66C19.28 24.56 19.03 24.24 19.02 23.87L19.02 17.8L13.85 17.8C13.54 17.81 13.25 17.64 13.1 17.37C12.96 17.1 12.97 16.77 13.14 16.52L19.73 6.87C19.93 6.57 20.31 6.43 20.67 6.53C21.02 6.64 21.26 6.96 21.27 7.33L21.27 7.33Z" /><path id="Path" class="shp1" d="M11.7 23.4L4.87 23.4" /><path id="Path" class="shp1" d="M8.29 16.25L2.6 16.25" /><path id="Path" class="shp1" d="M11.7 9.1L4.87 9.1" /><path id="Path" class="shp2" d="M0 0L31.2 0L31.2 31.2L0 31.2L0 0Z" /></g></svg>