<svg xmlns="http://www.w3.org/2000/svg" viewBox="0 0 32 32" width="32" height="32"><style>tspan { white-space:pre }.shp0 { fill: none;stroke: #92bae1;stroke-linecap:round;stroke-linejoin:round;stroke-width: 1.95 } .shp1 { fill: none;stroke: #0460ba;stroke-linecap:round;stroke-linejoin:round;stroke-width: 1.95 } .shp2 { display: none;fill: #000000 } </style><g id="tools-settings"><g id="Group"><path id="Path" class="shp0" d="M15.39 19.5L21.89 26C22.96 27.08 24.71 27.08 25.79 26L25.79 26C26.86 24.92 26.86 23.18 25.79 22.1L19.29 15.6" /><path id="Path" class="shp0" d="M8.89 9.1L13.44 13.65" /><path id="Path" class="shp1" d="M27.19 7.6C27.22 7.63 27.25 7.67 27.26 7.71C27.87 9.75 27.39 12.04 25.79 13.65C24.16 15.28 21.84 15.74 19.78 15.1L8.93 25.95C7.88 27.01 6.15 27.09 5.06 26.07C3.91 25 3.89 23.2 4.99 22.1L15.88 11.2C15.24 9.15 15.71 6.83 17.34 5.2C18.94 3.59 21.24 3.12 23.27 3.73C23.32 3.74 23.35 3.76 23.38 3.79L23.59 4.01C23.7 4.11 23.7 4.27 23.59 4.37L20.17 7.8L23.19 10.82L26.61 7.39C26.71 7.29 26.88 7.29 26.98 7.39L27.19 7.6L27.19 7.6Z" /><path id="Path" class="shp0" d="M3.81 5.58L4.69 8.21C4.87 8.74 5.36 9.1 5.92 9.1L8.89 9.1L8.89 6.14C8.89 5.58 8.53 5.08 8 4.9L5.37 4.03C5.13 3.95 4.87 4.01 4.7 4.18L3.97 4.92C3.8 5.09 3.73 5.35 3.81 5.58L3.81 5.58Z" /></g><path id="Path" class="shp2" d="M0 0L31.2 0L31.2 31.2L0 31.2L0 0Z" /></g></svg>