<svg xmlns="http://www.w3.org/2000/svg" viewBox="0 0 24 24" width="24" height="24"><style>tspan { white-space:pre }.shp0 { display: none;fill: #000000 } .shp1 { fill: #ffffff } </style><g id="twitter-line"><path id="Path" class="shp0" d="M0 0L24 0L24 24L0 24L0 0Z" /><path id="Shape" fill-rule="evenodd" class="shp1" d="M15.3 5.55C17.23 5.55 18.24 7.21 18.24 7.69C18.24 13.55 15.1 17.1 10.38 18.04C9.64 18.19 8.74 18.23 7.79 18.17L9.38 17.01C9.55 16.89 9.64 16.7 9.63 16.5C9.62 16.3 9.52 16.12 9.35 16.01L7.6 14.92C4.79 13.15 3.62 10.85 4.22 7.54C6.11 9.12 8.08 10.06 10.13 10.34L11.69 10.55C11.86 10.58 12.03 10.53 12.16 10.42C12.29 10.3 12.37 10.14 12.37 9.97L12.4 8.4C12.43 6.82 13.72 5.55 15.3 5.55ZM10.4 8.36C9.87 8.29 9.59 8.3 8.43 7.82C6.69 7.11 4.97 5.76 3.28 3.79C-0.33 12.47 5.16 15.7 6.54 16.61C4.91 17.8 2.09 18.1 1.39 18.16C2.76 19.58 7.51 20.65 10.78 20C15.54 19.05 20.24 15.33 20.24 7.69C20.95 6.71 21.12 6 21.45 4.36C20.1 5.18 19.5 5 18.78 5C17.4 3.6 15.31 3.17 13.48 3.9C11.65 4.63 10.44 6.39 10.4 8.36L10.4 8.36Z" /></g></svg>