<svg xmlns="http://www.w3.org/2000/svg" viewBox="0 0 24 22" width="24" height="22">
	<style>
		tspan { white-space:pre }
		.shp0 { fill: #ffffff } 
		.shp1 { fill: #58585a } 
		.shp2 { fill: #ff9833 } 
	</style>
	<g id="VoiceBot">
		<g id="Group">
			<path id="Shape" fill-rule="evenodd" class="shp0" d="M23.95 8.56L23.95 12.39C23.95 12.39 23.95 12.44 23.95 12.44C23.95 13.21 23.33 13.83 22.56 13.83L20.35 13.83C19.6 15.74 18.22 17.33 16.43 18.36L13.93 18.36C13.93 18.36 14.22 18.72 14.21 18.88L14.21 20.5C14.21 20.75 14.13 21 13.98 21.2C13.85 21.37 13.68 21.56 13.45 21.68C13.34 21.74 13.22 21.76 13.1 21.76L10.81 21.76C10.64 21.76 10.48 21.71 10.35 21.61C10.13 21.45 9.84 21.15 9.7 20.71C9.7 20.71 4.11 19.88 2.05 13.83L1.28 13.83C0.59 13.82 0.02 13.26 0.02 12.56L0.02 8.46C0.02 7.76 0.59 7.19 1.28 7.2L2.04 7.2C2.04 7.19 3.3 2.3 8.71 0.5C9.51 0.23 14.19 -1.11 18.35 2.16C18.35 2.16 20.64 3.75 21.78 7.17L22.53 7.17C23.28 7.2 23.89 7.81 23.95 8.56ZM18.85 15.09C21.39 11.24 20.33 6.05 16.48 3.51L7.36 3.51C6.29 4.22 5.39 5.16 4.75 6.27C2.42 10.26 3.78 15.38 7.76 17.7L16.08 17.7C17.19 17.06 18.14 16.16 18.85 15.09ZM23.18 12.54L23.18 8.42C23.18 8.11 22.93 7.86 22.62 7.86L21.27 7.86C21.27 7.86 19.6 0.57 11.39 0.71C9.23 0.74 4.22 2.24 2.57 7.86L1.21 7.86C0.91 7.86 0.68 8.1 0.68 8.39L0.68 12.57C0.68 12.87 0.91 13.1 1.21 13.1L2.53 13.13C2.53 13.13 4.08 18.99 10.37 20.17L10.37 20.51C10.37 20.82 10.62 21.07 10.94 21.07L12.92 21.07C13.23 21.07 13.48 20.82 13.48 20.51L13.48 19.06C13.48 18.76 13.23 18.51 12.92 18.51L10.94 18.51C10.62 18.51 10.37 18.76 10.37 19.06L10.37 19.44C6.11 18.71 2.87 14.98 2.87 10.49C2.87 5.47 6.91 1.4 11.91 1.4C16.9 1.4 20.95 5.47 20.95 10.49C20.95 11.37 20.82 12.25 20.57 13.09L22.62 13.09C22.93 13.09 23.18 12.85 23.18 12.54Z" />
		</g>
		<g id="Group">
			<path id="Path" class="shp1" d="M23.18 8.42L23.18 12.54C23.18 12.85 22.93 13.09 22.62 13.09L22.62 13.09L20.57 13.09C20.82 12.25 20.95 11.37 20.95 10.49C20.95 5.47 16.9 1.4 11.91 1.4C6.91 1.4 2.87 5.47 2.87 10.49C2.87 14.98 6.11 18.71 10.37 19.44L10.37 19.06C10.37 18.76 10.62 18.51 10.94 18.51L12.92 18.51C13.23 18.51 13.48 18.76 13.48 19.06L13.48 20.51C13.48 20.82 13.23 21.07 12.92 21.07L10.94 21.07C10.62 21.07 10.37 20.82 10.37 20.51L10.37 20.17C4.08 18.99 2.53 13.13 2.53 13.13L1.21 13.1C0.91 13.1 0.68 12.87 0.68 12.57L0.68 8.39C0.68 8.1 0.91 7.86 1.21 7.86L2.58 7.86C4.22 2.24 9.23 0.74 11.39 0.71C19.61 0.57 21.27 7.86 21.27 7.86L22.62 7.86C22.93 7.86 23.18 8.11 23.18 8.42L23.18 8.42Z" />
		</g>
		<g id="Group">
			<path id="Path" class="shp2" d="M20.23 10.48C20.23 13.46 18.65 16.21 16.08 17.7L7.76 17.7C3.78 15.38 2.42 10.26 4.75 6.27C5.39 5.16 6.29 4.22 7.36 3.51L16.48 3.51C18.82 5.06 20.23 7.67 20.23 10.48Z" />
		</g>
		<g id="Group">
			<path id="Path" class="shp0" d="M7.09 10.52C7.09 9.49 7.92 8.66 8.95 8.66C9.98 8.66 10.81 9.49 10.81 10.52C10.81 11.55 9.98 12.38 8.95 12.38C7.92 12.38 7.09 11.55 7.09 10.52Z" />
		</g>
		<g id="Group">
			<path id="Path" class="shp0" d="M13.04 10.52C13.04 9.49 13.87 8.66 14.9 8.66C15.93 8.66 16.76 9.49 16.76 10.52C16.76 11.55 15.93 12.38 14.9 12.38C13.87 12.38 13.04 11.55 13.04 10.52Z" />
		</g>
	</g>
</svg>